<?xml version="1.0" standalone="no"?>
<!DOCTYPE svg PUBLIC "-//W3C//DTD SVG 1.1//EN" "http://www.w3.org/Graphics/SVG/1.1/DTD/svg11.dtd" >
<!--
2013-9-30: Created.
-->
<svg>
<metadata>
Created by iconfont
</metadata>
<defs>

<font id="iconfont" horiz-adv-x="1024" >
  <font-face
    font-family="iconfont"
    font-weight="500"
    font-stretch="normal"
    units-per-em="1024"
    ascent="896"
    descent="-128"
  />
    <missing-glyph />
    
    <glyph glyph-name="x" unicode="x" horiz-adv-x="1001"
d="M281 543q-27 -1 -53 -1h-83q-18 0 -36.5 -6t-32.5 -18.5t-23 -32t-9 -45.5v-76h912v41q0 16 -0.5 30t-0.5 18q0 13 -5 29t-17 29.5t-31.5 22.5t-49.5 9h-133v-97h-438v97zM955 310v-52q0 -23 0.5 -52t0.5 -58t-10.5 -47.5t-26 -30t-33 -16t-31.5 -4.5q-14 -1 -29.5 -0.5
t-29.5 0.5h-32l-45 128h-439l-44 -128h-29h-34q-20 0 -45 1q-25 0 -41 9.5t-25.5 23t-13.5 29.5t-4 30v167h911zM163 247q-12 0 -21 -8.5t-9 -21.5t9 -21.5t21 -8.5q13 0 22 8.5t9 21.5t-9 21.5t-22 8.5zM316 123q-8 -26 -14 -48q-5 -19 -10.5 -37t-7.5 -25t-3 -15t1 -14.5
t9.5 -10.5t21.5 -4h37h67h81h80h64h36q23 0 34 12t2 38q-5 13 -9.5 30.5t-9.5 34.5q-5 19 -11 39h-368zM336 498v228q0 11 2.5 23t10 21.5t20.5 15.5t34 6h188q31 0 51.5 -14.5t20.5 -52.5v-227h-327z" />
    

    
    <glyph glyph-name="suo" unicode="&#58881;" d="M748.725516 429.122823 296.794613 429.122823l0 86.081541c0 108.191094 91.462085 193.011922 208.480218 193.684234 114.327862-0.630357 200.409402-83.685981 200.409402-193.684234l0-43.041282c0-11.894911 9.625218-21.520129 21.520129-21.520129s21.520129 9.625218 21.520129 21.520129l0 43.041282c0 134.082788-103.903441 235.422847-242.10606 236.725516-0.925069 0-1.765203 0-2.690272 0C363.41594 750.628234 253.753331 647.102393 253.753331 515.205387l0-88.25709c-72.810283-10.555403-129.122823-72.78163-129.122823-148.468426l0-279.766798c0-83.055624 67.588351-150.643975 150.643975-150.643975l473.451032 0c83.055624 0 150.643975 67.588351 150.643975 150.643975L899.369491 278.479871C899.368468 361.535495 831.78114 429.122823 748.725516 429.122823zM856.328209-1.286927c0-59.349713-48.25298-107.602693-107.602693-107.602693L275.274484-108.889621c-59.349713 0-107.602693 48.25298-107.602693 107.602693L167.671791 278.479871c0 59.349713 48.25298 107.602693 107.602693 107.602693l473.451032 0c59.349713 0 107.602693-48.25298 107.602693-107.602693L856.328209-1.286927zM512 300c-71.202669 0-129.122823-57.920154-129.122823-129.122823 0-63.981197 46.88175-116.849288 108.033505-126.992299-0.078795-0.735757-0.430812-1.3743-0.430812-2.130524l0-64.561411c0-11.894911 9.625218-21.520129 21.520129-21.520129s21.520129 9.625218 21.520129 21.520129L533.520129 41.754355c0 0.756223-0.357134 1.394766-0.430812 2.130524 61.146639 10.143011 108.033505 63.011102 108.033505 126.992299C641.122823 242.079846 583.202669 300 512 300zM512 84.794613c-47.454802 0-86.081541 38.627762-86.081541 86.082564s38.627762 86.081541 86.081541 86.081541 86.081541-38.627762 86.081541-86.081541S559.453778 84.794613 512 84.794613z"  horiz-adv-x="1024" />

    
    <glyph glyph-name="xiala" unicode="&#58923;" d="M783.52 441.248 512 169.728 240.48 441.248 195.232 396 512 79.232 828.768 396Z"  horiz-adv-x="1024" />

    
    <glyph glyph-name="leixing" unicode="&#58960;" d="M148.408224-212c-45.867267 0-96.99366 0.360214-108.808683 0.432257l-38.80707 0.408243-0.360214 38.759041c-0.264157 40.127855-0.792471 137.4337 0.024014 174.031456 1.969171 86.667521 25.599218 153.283122 70.265771 197.92566 45.459024 45.507052 105.999013 70.529928 170.429315 70.529928 64.454316 0 124.970291-25.022875 170.453329-70.529928 45.459024-45.43501 70.481899-105.950984 70.481899-170.381286 0-64.47833-25.022875-124.970291-70.481899-170.453329-44.618524-44.618524-111.210111-68.272586-197.901646-70.289785C199.006303-211.879929 174.55977-212 148.408224-212zM55.569034-156.45498c37.534313-0.216128 123.289291-0.624371 156.789206 0.120071 71.994799 1.680999 125.858819 19.907835 160.103176 54.128177 35.036828 35.036828 54.320292 81.672552 54.320292 131.382102 0 49.661522-19.283463 96.32126-54.296277 131.334074-35.036828 35.012814-81.672552 54.320292-131.382102 54.320292-49.661522 0-96.32126-19.307478-131.334074-54.320292-34.268371-34.268371-52.495207-88.156406-54.128177-160.12719C54.968677-31.436661 55.304877-110.971942 55.569034-156.45498zM241.127342 329.93016c-64.430302 0-124.970291 25.022875-170.429315 70.481899-44.642539 44.690567-68.2966 111.282154-70.265771 197.949675C-0.384228 634.935475 0.1681 732.265335 0.432257 772.417204l0.360214 38.831084 38.80707 0.312186c18.515007 0.144086 133.687473 0.912542 174.031456 0 86.691535-1.993185 153.283122-25.623232 197.949675-70.313799 45.459024-45.43501 70.481899-105.950984 70.481899-170.381286s-25.022875-124.970291-70.481899-170.429315C366.097633 354.977049 305.581658 329.93016 241.127342 329.93016zM55.569034 756.423696C55.304877 710.940658 54.968677 631.405377 55.665091 599.610476c1.632971-71.970784 19.859806-125.858819 54.128177-160.12719 34.9888-35.012814 81.648537-54.296277 131.334074-54.296277 49.685536 0 96.345274 19.283463 131.382102 54.296277 34.9888 35.012814 54.296277 81.672552 54.296277 131.358088S407.522259 667.186648 372.509445 702.175447c-34.268371 34.268371-88.132392 52.495207-160.12719 54.128177C178.858325 757.048067 93.103347 756.639824 55.569034 756.423696zM875.60852-212c-26.151546 0-50.574065 0.120071-65.222773 0.456271-86.71555 2.017199-153.33115 25.671261-197.92566 70.289785-45.483038 45.483038-70.505913 105.974999-70.505913 170.453329 0 64.430302 25.04689 124.946276 70.505913 170.381286 45.483038 45.507052 105.974999 70.529928 170.429315 70.529928s124.946276-25.022875 170.429315-70.529928c44.642539-44.642539 68.2966-111.234125 70.265771-197.92566 0.8405-36.597756 0.312186-133.903601 0.024014-174.031456l-0.3362-38.759041-38.831084-0.408243C972.578166-211.639786 921.451773-212 875.60852-212zM782.889402 214.805722c-49.685536 0-96.32126-19.307478-131.358088-54.320292s-54.320292-81.672552-54.320292-131.334074c0-49.685536 19.283463-96.345274 54.320292-131.382102 34.244357-34.220343 88.108378-52.447178 160.12719-54.128177 33.4759-0.720428 119.230879-0.3362 156.789206-0.120071 0.264157 45.483038 0.600357 125.018319-0.120071 156.81322-1.632971 71.970784-19.835792 125.858819-54.128177 160.12719C879.186648 195.522259 832.574938 214.805722 782.889402 214.805722zM782.889402 329.93016c-64.454316 0-124.946276 25.022875-170.429315 70.481899-45.459024 45.459024-70.505913 105.999013-70.505913 170.429315s25.04689 124.946276 70.505913 170.381286c44.618524 44.690567 111.210111 68.320614 197.92566 70.313799 40.295955 0.888528 155.444407 0.120071 174.031456 0l38.831084-0.312186 0.3362-38.831084c0.288171-40.151869 0.816485-137.457714-0.024014-174.05547-1.969171-86.643507-25.599218-153.259107-70.265771-197.949675C907.835678 354.977049 847.319704 329.93016 782.889402 329.93016zM875.60852 756.735882c-25.647246 0-49.589479-0.120071-63.950016-0.432257-71.994799-1.632971-125.882833-19.859806-160.12719-54.128177-35.036828-35.012814-54.320292-81.648537-54.320292-131.334074s19.283463-96.345274 54.320292-131.358088c35.036828-35.012814 81.648537-54.296277 131.358088-54.296277s96.32126 19.283463 131.334074 54.296277c34.292386 34.268371 52.495207 88.156406 54.128177 160.12719 0.720428 31.794901 0.384228 111.330182 0.120071 156.789206C946.978948 756.543767 909.828863 756.735882 875.60852 756.735882z"  horiz-adv-x="1025" />

    
    <glyph glyph-name="duihao" unicode="&#58919;" d="M378.62716-43.19953c-10.685479 0-21.370958 4.063492-29.467842 12.220576l-282.066549 282.006349c-16.314168 16.344268-16.314168 42.621517 0 58.965785 16.253968 16.223868 42.651617 16.223868 58.875485 0l252.689006-252.628807L900.590241 579.267255c16.193768 16.344268 42.621517 16.344268 58.845385 0 16.314168-16.284068 16.314168-42.621517 0-58.905585L408.095003-31.039153C399.937919-39.136038 389.31264-43.19953 378.62716-43.19953L378.62716-43.19953zM378.62716-43.19953"  horiz-adv-x="1024" />

    
    <glyph glyph-name="shipin" unicode="&#59015;" d="M412.606 163.053l223.859 111.93c20.596 10.299 20.596 39.737 0 50.035L412.606 436.946c-18.636 9.29-40.519-4.197-40.519-25.017L372.087 188.07C372.087 167.252 393.97 153.764 412.606 163.053zM876.051 635.79 147.949 635.79c-46.06 0-83.668-37.944-83.668-84.339l0-502.845c0-46.619 37.329-84.395 83.668-84.395l728.102 0c46.061 0 83.668 37.943 83.668 84.395L959.719 551.45C959.719 598.013 922.391 635.79 876.051 635.79zM232.176 48.437c0-15.613-11.977-28.262-28.263-28.262l-55.405 0c-15.614 0-28.262 11.977-28.262 28.262l0 55.404c0 15.615 11.976 28.264 28.262 28.264l55.461 0c15.558 0 28.207-11.977 28.207-28.264L232.176 48.437zM232.176 272.299c0-15.615-11.977-28.264-28.263-28.264l-55.405 0c-15.614 0-28.262 11.977-28.262 28.264l0 55.404c0 15.615 11.976 28.262 28.262 28.262l55.461 0c15.558 0 28.207-11.977 28.207-28.262L232.176 272.299zM232.176 496.157c0-15.615-11.977-28.262-28.263-28.262l-55.405 0c-15.614 0-28.262 11.976-28.262 28.262l0 55.405c0 15.614 11.976 28.262 28.262 28.262l55.461 0c15.558 0 28.207-11.977 28.207-28.262L232.176 496.157zM735.859 20.176 288.14 20.176 288.14 579.825l447.719 0L735.859 20.176zM903.756 48.437c0-15.613-11.979-28.262-28.264-28.262l-55.461 0c-15.559 0-28.207 11.977-28.207 28.262l0 55.404c0 15.615 11.977 28.264 28.264 28.264l55.461 0c15.559 0 28.207-11.977 28.207-28.264L903.756 48.437zM903.756 272.299c0-15.615-11.979-28.264-28.264-28.264l-55.461 0c-15.559 0-28.207 11.977-28.207 28.264l0 55.404c0 15.615 11.977 28.262 28.264 28.262l55.461 0c15.559 0 28.207-11.977 28.207-28.262L903.756 272.299zM903.756 496.157c0-15.615-11.979-28.262-28.264-28.262l-55.461 0c-15.559 0-28.207 11.976-28.207 28.262l0 55.405c0 15.614 11.977 28.262 28.264 28.262l55.461 0c15.559 0 28.207-11.977 28.207-28.262L903.756 496.157z"  horiz-adv-x="1024" />

    
    <glyph glyph-name="0085" unicode="&#58904;" d="M492.912 144.899c5.56-4.558 12.322-6.822 19.088-6.822s13.531 2.264 19.088 6.822c10.295 8.406 252.206 178.671 252.206 383.953 0 149.51-121.705 271.148-271.295 271.148-149.589 0-271.29-121.639-271.29-271.149 0-205.281 241.907-375.546 252.203-383.952v0zM511.999 739.793c116.382 0 211.060-94.62 211.060-210.942 0-146.165-155.884-270.542-211.091-320.667-55.203 50.067-211.026 174.24-211.026 320.667 0 116.321 94.674 210.942 211.057 210.942v0zM977.176 523.498l-120.47-90.309c-13.85-9.23-17.588-27.897-8.349-41.736 9.202-13.824 27.85-17.525 41.763-8.358l76.991 59.116v-466.994l-243.788-135.2-377.765 203.313c-8.91 4.762-19.793 4.732-28.676-0.096l-259.993-156.326v415.314l110.404 80.877c13.852 9.234 17.591 27.903 8.353 41.739-9.233 13.845-27.911 17.6-41.763 8.349l-120.47-90.309c-8.383-5.579-13.413-14.987-13.413-25.039v-481.634c0-10.616 5.618-20.464 14.738-25.907 9.172-5.401 20.497-5.579 29.793-0.53l286.852 172.796 377.177-202.985c4.437-2.384 9.35-3.579 14.262-3.579 4.621 0 9.235 1.051 13.473 3.17l271.059 150.51c10.202 5.118 16.645 15.522 16.645 26.924v541.844c0 11.109-6.115 21.3-15.91 26.541-9.765 5.227-21.675 4.651-30.914-1.491z"  horiz-adv-x="1024" />

    
    <glyph glyph-name="bianji" unicode="&#58947;" d="M879.656 40.12 137.288 40.12c-11.048 0-20-8.952-20-20s8.952-20 20-20l742.368 0c11.048 0 20 8.952 20 20S890.704 40.12 879.656 40.12zM166.592 97.84c1.832 0 3.68 0.248 5.496 0.768l123.072 35.152c3.272 0.936 6.248 2.688 8.648 5.096l386.816 386.808c7.816 7.808 7.816 20.472 0 28.28-7.816 7.816-20.472 7.816-28.28 0L327.76 219.376l-64.976 64.984c-2.304 2.304-5.048 3.84-7.952 4.792l327.352 327.352c7.816 7.808 7.816 20.472 0 28.28-7.816 7.816-20.472 7.816-28.28 0L170.032 260.912c-3.096-3.088-5.088-7.112-5.672-11.44l-17.584-128.928c-0.912-6.696 1.616-13.392 6.72-17.824C157.176 99.536 161.84 97.84 166.592 97.84zM203.08 237.4l26.632 26.624c0.944-2.896 2.488-5.64 4.784-7.944l64.984-64.992-20.288-20.288-88.64-25.312L203.08 237.4zM700.792 566.624c3.84-3.552 8.712-5.312 13.56-5.312 5.384 0 10.752 2.16 14.696 6.424l70.584 76.368c3.6 3.896 5.504 9.064 5.296 14.36s-2.512 10.304-6.416 13.904L701.56 761.936c-8.112 7.496-20.776 6.992-28.256-1.12l-70.56-76.368c-7.504-8.112-7-20.768 1.12-28.264L700.792 566.624zM689.112 718.984l67.568-62.416-43.44-46.992-67.544 62.424L689.112 718.984z"  horiz-adv-x="1024" />

    
    <glyph glyph-name="didian" unicode="&#58930;" d="M512.001023 1.179105c-5.900384 0-11.799744 2.153036-16.572444 6.476505-10.739599 9.715269-263.37241 240.892419-263.37241 466.328821 0 163.034167 125.5873 295.681256 279.945877 295.681256s279.945877-132.647089 279.945877-295.681256c0-203.381084-251.804956-454.934307-262.544555-465.540875C524.529361 3.612527 518.264681 1.179105 512.001023 1.179105zM512.001023 715.892993c-126.284171 0-229.034347-108.525716-229.034347-241.907539 0-169.230286 172.421978-353.61983 228.338498-408.949996 55.45194 59.059094 229.730195 256.734222 229.730195 408.949996C741.034347 607.366254 638.284171 715.892993 512.001023 715.892993zM512.001023 338.170209c-78.521355 0-142.392034 67.478857-142.392034 150.413731s63.87068 150.413731 142.392034 150.413731 142.425803-67.478857 142.425803-150.413731S590.522378 338.170209 512.001023 338.170209zM512.001023 585.223954c-50.446949 0-91.481528-43.357484-91.481528-96.641037s41.033555-96.641037 91.481528-96.641037 91.514273 43.357484 91.514273 96.641037S562.447972 585.223954 512.001023 585.223954z"  horiz-adv-x="1024" />

    
    <glyph glyph-name="v" unicode="&#58917;" d="M758.883 577.22c-6.198-0.6-12.494-1.948-18.887-4.047-6.399-2.099-13.393-4.947-20.986-8.545-9.593-4.6-17.388-9.795-23.385-15.589-5.996-5.799-12.494-13.791-19.487-23.984-10.39-15.191-23.178-34.528-38.365-58.010-15.187-23.487-35.568-54.713-61.139-93.687-26.176-40.173-49.658-76.401-70.438-108.676-20.78-32.28-41.259-64.208-61.439-95.786h-60.32c-15.589 88.537-28.78 162.79-39.573 222.749s-19.090 105.027-24.884 135.208c-2.399 10.793-5.448 18.738-9.144 23.834-3.7 5.096-9.046 9.94-16.039 14.54-5.599 3.598-10.895 6.244-15.889 7.945-4.999 1.696-11.392 3.045-19.187 4.047l5.096 21.885h225.771l-5.396-21.885c-16.39-1.799-28.584-3.649-36.575-5.546-7.995-1.901-13.893-3.851-17.688-5.846-3.598-1.799-5.597-3.898-5.996-6.295-0.403-2.399-0.6-4.497-0.6-6.295 0-4.398 0.399-8.896 1.199-13.491 0.796-4.6 1.799-10.891 2.998-18.873 3.805-23.562 9.504-55.406 17.113-95.537 7.603-40.131 16.808-91.542 27.614-154.232 26.335 41.522 50.679 80.201 73.028 116.036 22.344 35.836 43.695 70.223 64.054 103.164 8.577 13.973 16.015 27.056 22.32 39.25 6.305 12.189 9.457 20.485 9.457 24.883 0 5.996-5.153 10.989-15.454 14.989-10.301 3.996-25.146 6.595-44.53 7.795l5.396 21.885h176.75l-5.396-21.885z"  horiz-adv-x="1024" />

    
    <glyph glyph-name="shipin1" unicode="&#59033;" d="M508.484 803.063c-229.922 0-415.547-185.625-415.547-415.547s186.328-415.547 415.547-415.547 415.547 186.328 415.547 415.547c0 229.922-185.625 415.547-415.547 415.547zM508.484 33.844c-195.469 0-353.672 158.203-353.672 353.672s158.203 353.672 353.672 353.672 353.672-158.203 353.672-353.672c0-195.469-158.203-353.672-353.672-353.672zM667.391 416.344l-214.453 123.75c-21.797 12.656-49.922-3.516-49.922-28.828v-248.203c0-25.313 27.422-41.484 49.922-28.828l214.453 123.75c21.797 13.359 21.797 45.703 0 58.359z"  horiz-adv-x="1024" />

    
    <glyph glyph-name="weibiaoti1fuzhi01" unicode="&#58895;" d="M516.704 468.064 302.032 468.064c0 0-18.656 5.328-18.656-18.672l0-133.328c0 0-2.688-18.656 20-18.656l213.328 0 0-144c0 0-1.328-14.656 16 2.656l200 213.328c0 0 18.032 14 0 32L527.36 616.064c0 0-10.656 12-10.656-4L516.704 468.064z"  horiz-adv-x="1024" />

    
    <glyph glyph-name="icon2" unicode="&#58906;" d="M478.57 384l355.325-394.16h-656.083z"  horiz-adv-x="1024" />

    
    <glyph glyph-name="chanpin1" unicode="&#58944;" d="M526.91456 448.43008c-20.77184 0-40.66304 4.16256-56.01792 11.7248L164.52608 610.92864c-20.97664 10.31168-33.08032 26.87488-33.19808 45.42976-0.11776 18.75968 12.05248 35.73248 33.38752 46.5664L474.31168 860.1344c16.29696 8.27392 37.34016 12.83072 59.25888 12.83072 20.77184 0 40.66816-4.16256 56.02304-11.7248l306.3808-150.77888c20.97152-10.3168 33.07008-26.87488 33.18784-45.42464 0.11776-18.75968-12.04736-35.73248-33.37728-46.5664l-309.61152-157.2096C569.88672 452.98688 548.83328 448.43008 526.91456 448.43008zM187.12576 656.87552l306.3808-150.784c8.34048-4.10624 20.51584-6.46144 33.408-6.46144 13.81376 0 26.96704 2.65728 36.08576 7.28576l309.6064 157.2096c0.26624 0.13312 0.52224 0.26624 0.76288 0.39936l-306.38592 150.77888c-8.34048 4.10624-20.52096 6.46144-33.41312 6.46144-13.81376 0-26.96704-2.65216-36.08064-7.28064L187.88864 657.26976C187.62752 657.13664 187.37152 657.00352 187.12576 656.87552L187.12576 656.87552zM463.29344-104.97024c-10.58304 0-21.6576 2.7904-32.9216 8.27904l-0.66048 0.33792-273.75104 143.6416c-32.768 16.1792-57.44128 50.85184-57.44128 80.80896L98.51904 515.26656c0 27.136 19.9168 46.82752 47.34976 46.82752 10.58304 0 21.6576-2.7904 32.9216-8.28928L179.456 553.472l273.74592-143.6416c32.77312-16.17408 57.45152-50.85184 57.45152-80.80896l0-387.16928C510.64832-85.27872 490.73664-104.97024 463.29344-104.97024zM453.14048-50.82112c2.55488-1.2288 4.64896-1.95072 6.29248-2.37056l0.02048 382.208c0 8.2688-11.5968 26.43968-29.07648 34.97984l-0.66048 0.32768-273.6896 143.616c-2.54976 1.22368-4.64384 1.9456-6.28224 2.36544l-0.02048-382.21312c0-8.2688 11.5968-26.43968 29.07648-34.97984l0.65536-0.32768L453.14048-50.82112zM610.50368-104.97024C610.49856-104.97024 610.49856-104.97024 610.50368-104.97024c-27.4432 0-47.36 19.69152-47.36 46.8224l0 387.16928c0 29.96224 24.66816 64.63488 57.44128 80.80896l274.41664 143.97952c11.25888 5.49888 22.33344 8.28928 32.9216 8.28928 27.43296 0 47.34976-19.69664 47.34976-46.82752l0-387.16928c0-29.96224-24.66816-64.62976-57.4464-80.80896l-274.41152-143.97952C632.16128-102.17984 621.08672-104.97024 610.50368-104.97024zM917.77024 507.94496l-274.35008-143.9488c-17.47968-8.54016-29.07648-26.71104-29.07648-34.97984l0-382.21824c1.6384 0.43008 3.74272 1.152 6.30272 2.3808l274.34496 143.93856c17.47968 8.54016 29.07648 26.71104 29.07648 34.97984L924.06784 510.32064C922.42944 509.89568 920.33024 509.17376 917.77024 507.94496z"  horiz-adv-x="1024" />

    
    <glyph glyph-name="unlock" unicode="&#58882;" d="M829.435 368.006c-1.101 62.875-47.074 114.461-106.219 123.612h-103.084l-292.863-5.112-1.269 72.702c-1.595 91.369 73.037 164.326 170.115 166.589 59.145 0.701 109.651-25.82 139.695-68.403h42.274c-33.53 64.011-100.836 105.409-181.486 104.774l-2.234-0.039c-116.561-3.134-206.019-92.158-204.075-203.544l1.301-74.537c-60.251-9.972-106.056-63.34-104.941-127.261l4.124-236.276c1.224-70.144 58.295-126.248 127.208-125.045l392.811 6.856c68.908 1.202 123.991 59.265 122.766 129.408l-4.123 236.275zM710.158 38.671l-392.811-6.856c-49.245-0.86-89.988 39.191-90.862 89.317l-4.124 236.277c-0.875 50.123 38.446 91.575 87.689 92.434l392.811 6.856c49.239 0.86 89.987-39.195 90.862-89.317l4.124-236.277c0.876-50.123-38.449-91.575-87.689-92.434zM507.725 380.573c-59.076-1.031-106.275-50.789-105.227-110.924 0.943-54.036 40.616-98.002 91.501-105.687-0.050-0.62-0.333-1.165-0.322-1.803l0.952-54.526c0.175-10.046 8.302-18.034 18.171-17.862 9.866 0.172 17.715 8.439 17.54 18.485l-0.952 54.526c-0.011 0.639-0.32 1.173-0.393 1.791 50.581 9.456 88.704 54.781 87.761 108.816-1.048 60.136-49.955 108.216-109.031 107.184v0zM510.898 198.821c-39.372-0.688-71.988 31.375-72.687 71.45-0.7 40.081 30.778 73.263 70.15 73.949 39.371 0.688 71.988-31.375 72.687-71.456 0.699-40.075-30.78-73.255-70.15-73.943v0z"  horiz-adv-x="1024" />

    
    <glyph glyph-name="zipyasuo" unicode="&#58990;" d="M904.311688 716.467532c-6.649351 6.137862-13.81019 12.787213-21.994006 20.459541-23.016983 20.971029-45.522478 41.942058-67.516483 61.89011-2.557443 2.045954-2.557443 2.045954-5.114885 4.603396-29.154845 26.085914-53.194805 47.568432-71.096903 62.913087-10.22977 8.695305-18.925075 15.344655-24.551449 19.948052-4.091908 3.068931-7.160839 5.114885-10.741259 6.649351-4.091908 2.045954-7.672328 3.068931-13.298701 3.068931-14.321678-0.511489-25.574426-11.764236-25.574426-26.085914v-230.16983h230.169831l-25.574426 25.574425V-102.425574l25.574426 25.574425h-664.935065c-42.453546 0-76.723277 34.26973-76.723277 76.723277V868.891109l-25.574426-25.574426h460.339661c14.321678 0 25.574426 11.252747 25.574425 25.574426s-11.252747 25.574426-25.574425 25.574425h-485.914086V-0.127872c0-70.585415 57.286713-127.872128 127.872128-127.872128h690.50949V689.87013h-230.16983l25.574426-25.574426v204.595405c0-13.81019-11.252747-24.551449-24.551449-25.062937-4.603397 0-7.160839 0.511489-9.718282 2.045954-0.511489 0 1.022977-0.511489 2.557443-1.534466 4.603397-3.58042 12.275724-9.206793 21.482517-17.390609 17.390609-14.833167 40.919081-35.804196 69.562438-61.378621 2.557443-2.045954 2.557443-2.045954 5.114885-4.603397 21.482517-19.436563 44.4995-40.407592 67.004995-61.378621 8.183816-7.160839 15.344655-14.321678 21.994006-20.459541 4.091908-3.58042 6.649351-6.137862 8.183816-7.672328 10.22977-9.718282 26.597403-9.206793 36.315685 1.022977 9.718282 10.22977 9.206793 26.597403-1.022978 36.315685-1.534466 1.022977-4.091908 3.58042-8.183816 7.672327zM102.297702 434.125874h-102.297702v-434.765235h1022.977023v434.765235h-869.53047v0.511489h-51.148851v-0.511489z m179.532468-317.122877h155.492507v-40.407592h-216.35964v32.735264l150.377622 217.382618h-149.354645v40.919081h210.733267v-31.712288l-150.889111-218.917083z m252.163836-40.407592h-50.125874v291.036963h50.125874V76.595405z m112.527473 107.924076V76.595405h-50.637363v291.036963h111.504495c32.735265 0 58.30969-8.695305 77.234766-25.574426s28.643357-39.384615 28.643356-67.004995c0-28.643357-9.206793-50.637363-28.131868-66.493506-18.925075-15.856144-45.010989-23.528472-78.769231-23.528472h-59.844155z m0 40.91908h60.867132c17.902098 0 31.712288 4.091908 40.919081 12.787213 9.206793 8.695305 14.321678 20.45954 14.321679 36.827173 0 15.856144-4.603397 28.131868-14.321679 37.85015-9.718282 9.206793-23.016983 14.321678-39.384615 14.321678h-61.89011v-101.786214z"  horiz-adv-x="1024" />

    
    <glyph glyph-name="touzi" unicode="&#58911;" d="M497.92-99.584c-81.92 0-163.072 20.736-236.8 60.928-116.48 63.488-200.96 168.448-238.08 295.424-37.376 126.976-23.04 261.12 40.448 377.344C194.304 873.984 496.128 962.56 736.256 831.744c11.264-6.144 15.36-20.224 9.216-30.976-6.144-11.264-20.224-15.36-30.976-9.216-105.472 57.6-227.072 70.656-342.528 36.608S161.28 717.568 103.68 611.84C46.08 506.368 32.768 385.024 66.816 269.568s110.592-210.688 216.32-268.032c105.472-57.6 227.072-70.656 342.528-36.608 115.456 33.792 210.688 110.592 268.032 216.32 61.952 113.664 72.192 248.32 27.648 369.92-4.352 12.032 1.792 25.088 13.824 29.44 12.032 4.352 25.088-1.792 29.44-13.824 48.896-133.888 37.632-282.624-30.464-407.808-63.488-116.48-168.448-200.96-295.424-238.08C591.872-92.928 544.768-99.584 497.92-99.584zM497.92 47.36c-56.576 0-113.92 13.824-166.912 42.496-168.96 92.16-231.424 304.896-139.008 473.856 44.8 81.92 118.784 141.312 208.128 167.936C489.472 757.76 583.936 747.52 665.856 702.976c11.264-6.144 15.36-20.224 9.216-30.976-6.144-11.264-20.224-15.36-30.976-9.216-71.168 38.656-153.088 47.616-230.656 24.576s-141.824-74.496-180.736-145.664c-38.656-71.168-47.616-153.088-24.576-230.656s74.496-141.824 145.664-180.736c46.08-25.088 95.744-36.864 144.896-36.864 107.52 0 211.712 57.088 266.496 157.952 42.24 77.568 48.64 169.472 17.664 252.416-4.608 12.032 1.536 25.088 13.568 29.44 12.032 4.608 25.088-1.536 29.44-13.568 35.84-95.232 28.416-201.216-20.48-290.56C741.632 113.152 621.568 47.36 497.92 47.36zM814.592 515.584M498.176 182.528c-34.56 0-69.888 8.448-102.144 26.112-103.68 56.576-141.824 186.88-85.248 290.304 27.392 50.176 72.448 86.528 127.488 102.912 54.784 16.128 112.64 9.984 162.816-17.664 11.264-6.144 15.36-20.224 9.216-30.976-6.144-11.264-20.224-15.36-30.976-9.216-39.424 21.504-84.736 26.368-127.744 13.824s-78.592-41.216-100.096-80.64c-44.288-81.152-14.336-183.552 67.072-227.84 39.424-21.504 84.736-26.368 127.744-13.824 43.008 12.8 78.592 41.216 100.096 80.64 23.808 43.52 26.88 95.232 9.216 141.312-4.608 11.776 1.28 25.088 13.056 29.696 11.776 4.608 25.088-1.28 29.696-13.056 23.04-59.136 18.688-124.416-11.776-179.968C647.68 222.72 573.952 182.528 498.176 182.528zM695.808 473.088M827.904 564.736c-0.768 0-1.536 0-2.304 0.256l-94.208 13.824c-7.424 1.024-12.8 7.168-13.056 14.592l-3.84 106.752c-0.256 4.864 2.048 9.472 5.632 12.544l177.152 144.64c4.864 3.84 11.52 4.608 17.152 1.536 5.376-3.072 8.704-8.96 7.936-15.104l-9.728-91.648 94.72-9.984c6.144-0.768 11.264-4.864 13.056-10.752 1.792-5.888-0.256-12.288-4.864-16.384L837.376 568.32C835.072 565.76 831.488 564.736 827.904 564.736zM748.8 606.976l74.752-11.008 144.64 119.296-73.472 7.68c-4.096 0.512-7.68 2.56-10.24 5.632-2.56 3.072-3.84 7.168-3.328 11.264l7.424 70.144L745.984 693.76 748.8 606.976zM488.704 376.064c-6.144 0-12.032 2.56-16.128 7.68-7.168 8.96-5.632 21.76 3.072 28.672l245.76 197.12c8.96 7.168 21.76 5.632 28.672-3.072 7.168-8.96 5.632-21.76-3.072-28.672l-245.76-197.12C497.664 377.6 493.312 376.064 488.704 376.064z"  horiz-adv-x="1024" />

    
    <glyph glyph-name="ppt" unicode="&#58985;" d="M831.616 39.104c-17.152 0-27.328-10.176-27.328-27.328v-29.12c-0.064-0.704-1.344-1.984-1.92-2.048l-608.192-0.064c-0.704 0.128-1.92 1.408-2.112 2.048V766.4c0.128 0.704 1.408 1.92 1.984 2.112h458.24v-124.864c0-17.152 10.176-27.328 27.264-27.328h124.736v-130.688c0-17.088 10.176-27.264 27.328-27.264 17.088 0 27.2 10.176 27.2 27.264V643.648c0 13.952-6.464 26.88-12.672 39.424l-0.704 1.408-123.968 124.032-1.152 1.088-1.344 0.704c-12.544 6.272-25.408 12.672-39.424 12.672H194.112a56.32 56.32 0 0 1-38.976-17.472 56.256 56.256 0 0 1-17.536-38.976v-783.872c0-13.696 6.4-27.968 17.472-39.04s25.344-17.472 38.976-17.472h608.256c13.76 0 27.968 6.4 38.912 17.472a56.128 56.128 0 0 1 17.472 39.04v29.184a27.008 27.008 0 0 1-7.168 20.032 26.752 26.752 0 0 1-19.904 7.232zM706.816 743.04l72.064-72.128h-72.064V743.04zM426.496 328.064c-8.192 5.888-20.544 8.832-36.736 8.832h-3.712a43.84 43.84 0 0 0-15.808 0l-0.768 0.256v-70.976h0.576c2.624 0 7.616-0.448 16-1.344 4.096-0.512 8-0.64 11.648-0.64 14.912 0 25.92 3.584 32.768 10.56 5.888 6.208 8.768 15.168 8.384 26.752 0 11.84-4.16 20.672-12.352 26.56zM598.528 336.896h-3.648a43.84 43.84 0 0 0-15.808 0l-0.768 0.256v-70.976h0.576c2.624 0 7.68-0.448 16-1.344 4.096-0.512 7.936-0.64 11.584-0.64h0.064c14.848 0 25.92 3.584 32.768 10.56 6.016 6.208 8.832 15.168 8.448 26.752-0.064 23.552-16.64 35.392-49.216 35.392zM903.232 425.92H332.096a57.728 57.728 0 0 1-57.728-57.664v-228.48c0-31.808 25.856-57.728 57.728-57.728h571.136a57.792 57.792 0 0 1 57.664 57.728v228.48a57.664 57.664 0 0 1-57.664 57.664z m-494.4-200.192h-39.36v-95.04h-51.008V377.28H394.24c33.664 0.384 59.136-5.952 75.648-18.88 16-12.672 24.064-31.744 24.064-56.896-1.792-47.616-30.4-73.152-85.12-75.776z m208.832 0h-39.36v-95.04h-51.072V377.28h75.776c33.728 0.448 59.264-5.888 75.776-18.88 15.936-12.672 24-31.744 24-56.896-1.792-47.616-30.4-73.152-85.12-75.776z m299.264 111.168h-73.536v-206.208h-52.416V336.896h-73.6v40.384h199.616v-40.384z"  horiz-adv-x="1024" />

    
    <glyph glyph-name="guanbi" unicode="&#58999;" d="M776.853 719.048l-266.622-266.622-264.332 264.332c-18.33 18.33-48.326 18.33-66.656 0s-18.33-48.326 0-66.656l264.332-264.332-266.622-266.622c-18.33-18.33-18.33-48.326 0-66.656s48.326-18.33 66.656 0l266.622 266.622 268.914-268.914c18.33-18.33 48.326-18.33 66.656 0s18.33 48.326 0 66.656l-268.914 268.914 266.622 266.622c18.33 18.33 18.33 48.326 0 66.656s-48.326 18.33-66.656 0z"  horiz-adv-x="1024" />

    
    <glyph glyph-name="xiugaimima" unicode="&#58880;" d="M807.286 502.035h-59.057v78.729c0 130.193-105.964 236.099-236.229 236.099s-236.229-105.906-236.229-236.099v-78.729h-59.057c-32.617 0-59.057-26.426-59.057-59.025l0-432.848c0-32.598 26.441-59.025 59.057-59.025h590.573c32.617 0 59.057 26.426 59.057 59.025l-0 432.849c0 32.598-26.44 59.024-59.057 59.024zM334.828 580.764c0 97.645 79.473 177.075 177.172 177.075s177.172-79.43 177.172-177.075v-78.729h-354.344v78.729zM807.286 10.162h-590.573v432.849h590.573l-0-432.849zM512 118.364c16.302 0 29.529 13.219 29.529 29.512v157.4c0 16.293-13.226 29.512-29.529 29.512s-29.529-13.219-29.529-29.512v-157.4c0-16.293 13.226-29.512 29.529-29.512z"  horiz-adv-x="1024" />

    
    <glyph glyph-name="shalou" unicode="&#58951;" d="M364.42861 64.78466400000002c0-18.068695 12.045796-30.117952 30.117952-30.117952h234.910337c18.068695 0 30.117952 12.045796 30.117953 30.117952 0 18.068695-12.045796 30.117952-30.117953 30.117953h-234.910337c-18.068695-0.003461-30.117952-12.049258-30.117952-30.117953zM816.177128 673.135459h18.068695c42.163749 0 72.281701 36.140851 72.281701 72.281701V823.718299C906.527524 865.882048 870.386673 896 834.245823 896H189.750716C147.586967 896 117.472476 859.859149 117.472476 823.718299v-78.301139c0-42.163749 36.140851-72.281701 72.281701-72.281701h18.068695c18.068695-108.419091 90.350396-204.792385 144.559941-277.074086l6.022898-12.045797-6.022898-12.045796c-54.209545-72.281701-126.491247-168.651534-144.559941-277.074086h-18.068695c-42.163749 0-72.281701-36.140851-72.281701-72.281702v-78.301138c0-42.163749 36.140851-72.281701 72.281701-72.281701h644.495107c42.163749 0 72.281701 30.117952 72.281702 72.281701v78.301138c0 42.163749-36.140851 72.281701-72.281702 72.281702h-18.068694c-18.068695 108.419091-90.350396 204.792385-144.559942 277.074086l-6.022898 12.045796 6.022898 12.045797c54.206084 72.281701 126.487785 168.654996 144.55648 277.074086z m-204.792385-301.165679l24.091593-30.117952c48.186647-72.281701 126.491247-168.651534 132.514145-277.074087 0-18.068695 12.045796-30.117952 30.117953-30.117952h42.163748c6.022898 0 12.045796-6.022898 12.045797-12.045797v-78.301138c0-6.022898-6.022898-12.045796-12.045797-12.045796H195.777075c-6.022898 0-12.045796 6.022898-12.045796 12.045796v78.301138c0 6.022898 6.022898 12.045796 12.045796 12.045797h42.163749c18.068695 0 30.117952 12.045796 30.117953 30.117952 6.022898 108.419091 78.301138 204.792385 132.514145 277.074087l24.091593 30.117952c6.022898 12.045796 6.022898 24.091593 0 36.140851l-24.091593 30.117952c-48.186647 72.281701-126.491247 168.651534-132.514145 277.074086 0 18.068695-12.045796 30.117952-30.117953 30.117953H195.777075c-6.022898 0-12.045796 6.022898-12.045796 12.045796V835.767556c0 6.022898 6.022898 12.045796 12.045796 12.045797h644.495107c6.022898 0 12.045796-6.022898 12.045797-12.045797v-78.301138c0-6.022898-6.022898-12.045796-12.045797-12.045796h-42.163748c-18.068695 0-30.117952-12.045796-30.117953-30.117953-6.022898-108.419091-78.301138-204.792385-132.514145-277.074086l-24.091593-30.117952c-6.022898-12.045796-6.022898-24.091593 0-36.140851z"  horiz-adv-x="1024" />

    
    <glyph glyph-name="didian1" unicode="&#58952;" d="M511.785325 896C285.51782 896 101.326625 711.808805 101.326625 485.5413c0-25.761006 2.361426-51.736688 7.298952-77.068344 0.214675-1.502725 1.073375-6.010901 2.790775-13.739203 6.225577-27.693082 15.456604-54.956813 27.478407-80.932495 44.223061-104.1174 141.47086-264.050314 354.857862-435.361006 5.366876-4.293501 11.807128-6.440252 18.247379-6.440252s12.880503 2.146751 18.247379 6.440252c213.172327 171.310692 310.634801 331.243606 354.857862 435.361006 12.021803 25.975681 21.25283 53.024738 27.478407 80.932495 1.7174 7.728302 2.576101 12.236478 2.790775 13.739203 4.722851 25.331656 7.298952 51.307338 7.298952 77.068344C922.244025 711.808805 738.05283 896 511.785325 896z m346.056184-477.437317c0-0.42935-0.214675-0.8587-0.214675-1.28805-0.214675-1.073375-0.8587-4.293501-1.932075-9.231027v-0.42935c-5.366876-24.043606-13.309853-47.443187-23.828931-69.984067-0.214675-0.214675-0.214675-0.644025-0.42935-0.858701-40.144235-95.101048-128.161006-240.221384-319.651153-398.436897-191.490147 158.215514-279.506918 303.335849-319.651153 398.436897-0.214675 0.214675-0.214675 0.644025-0.42935 0.858701-10.304403 22.326205-18.247379 45.940461-23.828931 69.984067v0.42935c-1.28805 4.937526-1.7174 8.157652-1.932075 9.231027 0 0.42935-0.214675 0.8587-0.214676 1.502725-4.293501 22.11153-6.440252 44.437736-6.440251 66.978617 0 194.280922 158.215514 352.496436 352.496436 352.496436s352.496436-158.215514 352.496436-352.496436c0-22.755556-2.146751-45.296436-6.440252-67.193292zM511.785325 741.648637c-143.61761 0-260.615514-116.997904-260.615514-260.615513s116.997904-260.615514 260.615514-260.615514 260.615514 116.997904 260.615514 260.615514S655.402935 741.648637 511.785325 741.648637z m0-463.268763c-111.845702 0-202.653249 91.022222-202.65325 202.65325s91.022222 202.653249 202.65325 202.653249 202.653249-91.022222 202.653249-202.653249-90.807547-202.653249-202.653249-202.65325z"  horiz-adv-x="1024" />

    
    <glyph glyph-name="huodongshijian" unicode="&#58953;" d="M512 896C229.686261 896 0.004673 666.318412 0.004673 384.004673c0-282.318412 229.676915-512.004673 511.990654-512.004673 282.318412 0 511.995327 229.686261 511.995328 512.004673C1023.995327 666.318412 794.318412 896 512 896z m0-953.91102c-243.666676 0-441.901675 198.244344-441.901675 441.915693C70.093653 627.671348 268.333324 825.91102 512 825.91102c243.666676 0 441.906347-198.239671 441.906347-441.906347 0-243.676021-198.239671-441.915692-441.906347-441.915693zM776.174711 390.840684h-243.213433V656.53399a35.04449 35.04449 0 0 1-70.08898 0v-300.737796a35.04449 35.04449 0 0 1 35.04449-35.04449h278.257923a35.04449 35.04449 0 0 1 0 70.08898z"  horiz-adv-x="1024" />

    
    <glyph glyph-name="suoshuyuanqu" unicode="&#58954;" d="M416 896c-17.664 0-32-14.336-32-32v-95.936C166.464 736.96 0 547.072 0 322.56 0 74.112 201.024-128 448-128c221.888 0 410.624 166.464 442.816 384H992c17.664 0 32 14.336 32 32C1024 623.232 751.232 896 416 896z m32-960c-211.776 0-384 173.376-384 386.56 0 189.504 138.048 350.592 320 381.12V288c0-17.664 14.336-32 32-32h410.432C794.88 73.984 635.008-64 448-64z m0 384V831.04c274.496-16 495.04-236.48 511.04-511.04H448z"  horiz-adv-x="1024" />

    
    <glyph glyph-name="tishi" unicode="&#58955;" d="M605.084078 128.01783h-186.178345c-12.608704 0-23.518418-4.613003-32.734234-13.81863-9.208175-9.213269-13.816083-20.115341-13.816083-32.724045v-162.901913c0-12.60361 4.607908-23.51587 13.816083-32.741875 9.223458-9.195439 20.122983-13.808442 32.734234-13.808442h186.193628c12.588327 0 23.503134 4.613003 32.726593 13.808442 9.195439 9.223458 13.805894 20.135719 13.805894 32.741875v162.901913c0 12.606157-4.618097 23.508229-13.823725 32.724045-9.213269 9.213269-20.128077 13.81863-32.724045 13.81863zM660.71521 882.183917C651.746473 891.38445 640.961573 896 628.347774 896h-232.710831c-12.60361 0-23.383415-4.61555-32.357247-13.816083-8.968737-9.213269-13.209847-20.128077-12.725876-32.731687l20.357326-558.514657c0.48397-12.60361 5.448489-23.526059 14.90629-32.724045 9.452707-9.223458 20.48214-13.833914 33.090844-13.833914h186.193628c12.588327 0 23.615212 4.610456 33.090844 13.833914 9.45016 9.195439 14.399395 20.117888 14.906291 32.724045l20.34459 558.514657c0.504348 12.60361-3.757139 23.508229-12.728423 32.731687z"  horiz-adv-x="1024" />

    
    <glyph glyph-name="trophy" unicode="&#58956;" d="M913.994 896h-804v-215.014c0-110.298 88.436-200.328 198.128-202.924 40.292-55.374 102.554-93.77 173.872-102.268v-65.04c-53.148-11.654-95.074-53.6-106.73-106.754h273.458c-11.654 53.154-53.582 95.1-106.73 106.754v65.04c71.318 8.498 133.58 46.894 173.872 102.268 109.698 2.59 198.14 92.622 198.14 202.924L913.994 896z m-744-215.014V838h90v-212c0-28.89 4.902-56.652 13.892-82.52-59.892 17.058-103.892 72.222-103.892 137.506z m403.804-99.27l-61.804 44.902-61.804-44.902 23.606 72.654-61.804 44.902h76.394l23.606 72.654L535.6 699.272h76.394l-61.804-44.902 23.608-72.654z m280.21 99.27c0-65.288-44.006-120.456-103.904-137.51a250.918 250.918 0 0 1 13.892 82.522V838h90.012v-157.014zM276 144h476v-100H276zM175.994-16h676v-112h-676z"  horiz-adv-x="1024" />

    
    <glyph glyph-name="question" unicode="&#58957;" d="M566.514163 250.569017c115.411907 0 209.268282 93.857498 209.268282 209.268282s-93.857498 209.268282-209.268282 209.268282-209.268282-93.856375-209.268282-209.268282 93.857498-209.268282 209.268282-209.268282zM388.569885 209.029712c-80.608705 0-145.948909-65.339081-145.948909-145.948909v-163.013705c0-15.494161 12.57406-28.067098 28.067098-28.067098h591.654424c15.493038 0 28.067098 12.572937 28.067097 28.067098V59.03914c2.469905 4.266199 4.715272 8.869203 6.511567 13.696744l114.51376 303.124658c3.817125 10.104155 5.837956 20.881921 5.837956 31.771954V747.805723c0 49.622629-40.192084 89.814713-89.814713 89.814713s-89.814713-40.192084-89.814714-89.814713v-323.782041l-81.170047-214.99397h-367.903519zM34.587646 696.049995h66.238351c13.921281 0 25.709462 10.104155 27.730293 23.800899 3.817125 24.923583 11.563644 43.335599 23.01502 54.450169 10.665497 10.328692 25.372657 15.38077 45.131894 15.38077 20.432847 0 36.038154-5.61342 47.938603-17.289332 11.90045-11.675913 17.401601-25.709462 17.401601-44.346015 0-8.756935-2.020831-16.840259-6.174762-24.699046-2.133099-3.929394-10.44096-16.05438-42.100647-42.886526-29.414319-24.923583-49.285824-48.387677-60.849468-71.627233-11.788181-23.688631-17.513869-58.155027-17.513869-105.083215 0-15.493038 12.57406-28.067098 28.067098-28.067098h59.839052c15.493038 0 28.067098 12.57406 28.067098 28.067098 0 36.26269 4.378467 51.082118 6.960641 56.695538 2.020831 4.490736 10.44096 17.738406 43.784672 45.35643 30.986076 25.709462 51.867997 49.173556 63.768447 71.627234 12.237255 23.01502 18.412016 48.275408 18.412016 74.995285 0 47.714066-18.076334 87.569345-53.888828 118.555422-34.578665 29.863392-79.710558 45.019625-134.160728 45.019625-51.867997 0-95.764938-15.493038-130.231334-45.917772-34.803201-30.761539-54.674707-72.413113-59.165443-123.719768-1.571757-16.166648 11.339108-30.312466 27.730293-30.312465zM223.086276 296.935862c15.493038 0 28.067098 12.572937 28.067098 28.067098v59.726785c0 15.494161-12.57406 28.067098-28.067098 28.067097h-59.726785c-15.493038 0-28.067098-12.572937-28.067098-28.067097v-59.726785c0-15.494161 12.57406-28.067098 28.067098-28.067098h59.726785z"  horiz-adv-x="1024" />

    
    <glyph glyph-name="crown" unicode="&#58958;" d="M983.709907 511.894729a28.63372 28.63372 0 0 0-0.757952-8.532695l-63.162617-252.650468a28.721764 28.721764 0 0 0-27.707334-21.74708l-378.975701-1.914019H133.981308a28.71028 28.71028 0 0 0-27.856628 21.773877l-63.162616 253.607477a28.664344 28.664344 0 0 0-0.754124 8.762377C17.773578 518.892381 0 541.757249 0 568.702804c0 33.246505 27.045084 60.291589 60.291589 60.291589S120.583178 601.949308 120.583178 568.702804c0-18.722931-8.578632-35.474422-22.011215-46.541279l79.079596-79.67677c19.986183-20.139305 47.720314-31.684665 76.093727-31.684665 33.54892 0 65.536 15.932292 85.679133 42.625196l129.961869 172.200434A60.077219 60.077219 0 0 0 451.708411 668.231776c0 33.246505 27.045084 60.291589 60.291589 60.291588s60.291589-27.045084 60.291589-60.291588c0-16.123693-6.400479-30.75828-16.747664-41.587798 0.034452-0.045936 0.076561-0.084217 0.111013-0.133982l129.020172-172.67511c20.135477-26.949383 52.237398-43.038624 85.882019-43.038624 28.63372 0 55.560135 11.151073 75.806624 31.40139l79.577241 79.577241C912.225136 532.837921 903.416822 549.750191 903.416822 568.702804c0 33.246505 27.045084 60.291589 60.291589 60.291589s60.291589-27.045084 60.291589-60.291589c0-26.225884-16.862505-48.531858-40.290093-56.808075z m-70.083709-374.80314a28.71028 28.71028 0 0 1-28.71028 28.71028h-742.639253a28.71028 28.71028 0 0 1-28.71028-28.71028v-68.904673a28.71028 28.71028 0 0 1 28.71028-28.71028h742.639253a28.71028 28.71028 0 0 1 28.71028 28.71028v68.904673z"  horiz-adv-x="1024" />

    
    <glyph glyph-name="qr-code" unicode="&#58959;" d="M0-127.992358h465.453156V337.465893H0v-465.458251z m93.083499 372.359468h279.275969v-278.552536H93.083499V244.36711zM186.179734 151.283611h93.088593v-93.10133H186.179734zM744.708747-34.908859h93.111519v-93.091141h-93.111519zM930.891028-34.908859h93.108972v-93.091141h-93.108972zM930.901217 244.36711h-93.083498v93.098783H558.534107v-465.458251h93.098783V151.283611h93.075857v-93.10133h279.283611V337.465893h-93.091141zM0 430.536655h465.453156V896H0v-465.463345zM93.083499 802.916501h279.275969v-279.275969H93.083499V802.916501zM186.179734 709.820266h93.088593v-93.096235H186.179734zM558.534107 896v-465.463345h465.465893V896H558.534107z m372.36711-372.359468H651.63289V802.916501h279.268327v-279.275969zM744.708747 709.820266h93.111519v-93.096235h-93.111519z"  horiz-adv-x="1024" />

    
    <glyph glyph-name="phone-book" unicode="&#58961;" d="M201.730852 735.337538c0-23.17834-17.810184-41.952624-39.807643-41.952624H75.661905c-22.060212 0.028524-39.870396 18.740056-39.870395 41.952624 0 23.149816 17.810184 41.918396 39.870395 41.918395h86.227076c22.003164 0 39.841872-18.774284 39.841871-41.918395z m0-234.236435c0 23.149816-17.810184 41.981148-39.807643 41.981148H75.661905c-22.060212 0-39.870396-18.774284-39.870395-41.981148 0-23.149816 17.810184-41.952624 39.870395-41.952624h86.227076c22.003164 0.062752 39.841872 18.802808 39.841871 41.952624z m0-234.139454c0 23.149816-17.810184 41.952624-39.807643 41.952624H75.661905c-22.060212-0.028524-39.870396-18.740056-39.870395-41.952624 0-23.149816 17.810184-41.981148 39.870395-41.981148h86.227076c22.003164 0 39.841872 18.768579 39.841871 41.981148z m0-234.173682c0 23.115588-17.810184 41.889872-39.807643 41.889871H75.661905c-22.060212-0.028524-39.870396-18.740056-39.870395-41.889871 0-23.206864 17.810184-41.981148 39.870395-41.981148h86.227076c22.003164 0 39.841872 18.774284 39.841871 41.981148zM988.20849 850.173861v-932.370541c0-25.254864-20.48-45.797616-45.769092-45.797615H165.363164a45.791911 45.791911 0 0 0-45.826139 45.797615v39.933148h42.323432c39.311331 0 71.303487 33.63512 71.303487 74.965928 0 41.296579-31.992156 74.931699-71.303487 74.931699h-42.323432v84.333103h42.323432c39.311331 0 71.303487 33.63512 71.303487 74.965927s-31.992156 74.903175-71.303487 74.903176h-42.323432V426.135175h42.323432c39.311331 0 71.303487 33.63512 71.303487 74.965928s-31.992156 74.965928-71.303487 74.965928h-42.323432V660.37161h42.323432c39.311331 0 71.303487 33.63512 71.303487 74.965928s-31.992156 74.903175-71.303487 74.903175h-42.323432v39.933148A45.797616 45.797616 0 0 0 165.363164 896h777.104758c25.260568 0 45.740568-20.48 45.740568-45.826139z m-519.290652-343.082786c1.0839 13.58868 9.772212 28.266964 20.91356 26.7438 12.533304-1.768468 43.504312-24.604524 54.674184-30.468992 30.40624-15.608156 79.404212 105.343643 56.659432 119.582663-17.810184 11.015844-33.760624 26.002184-53.15102 34.040156-3.257404 1.334908-6.857092 1.334908-10.365504 2.076524-79.278708 17.747432-160.16615-50.66946-168.420902-153.622819-3.22888-39.34556-5.025872-78.748167-5.801716-118.185003h-0.188256c0.062752-1.0839 0.125504-2.110752 0.125504-3.22888s-0.062752-2.048-0.125504-3.228881h0.188256a1813.307187 1813.307187 0 0 1 5.801716-118.185002c8.254752-102.890607 89.142195-171.307499 168.420902-153.560067 3.508412 0.684568 7.1081 0.713092 10.365504 2.019476 19.390396 8.037972 35.340836 22.990084 53.15102 34.06868 22.710552 14.210496-26.247487 135.099543-56.659432 119.582663-11.141348-5.864468-42.106652-28.791799-54.674184-30.531744-11.078596-1.523164-19.82966 13.217872-20.91356 26.778028-2.91512 35.871376-0.308056 81.760267-0.062752 119.799443h0.062752v3.22888 3.22888h-0.062752c-0.251008 38.101928-2.852368 83.962295 0.062752 119.862195z m197.246931-226.198462c56.904735 56.904735 56.904735 149.372791 0 206.277526l-30.252212-30.314964c40.241203-40.184156 40.241203-105.560423 0-145.676122l30.252212-30.28644z m54.018139-53.89834c86.540836 86.540836 86.540836 227.43639-0.062752 314.039978l-30.252212-30.252212c69.940056-69.940056 69.940056-183.686774 0-253.592602l30.314964-30.195164z m52.221148 366.261125l-30.252212-30.223688c98.669103-98.703331 98.669103-259.33727 0-358.034897l30.252212-30.252211c115.332635 115.423911 115.332635 303.149638 0 418.510796z"  horiz-adv-x="1024" />

    
    <glyph glyph-name="medal" unicode="&#58962;" d="M889.759436 433.775469l-50.02951 68.450418c-3.139927 4.395898-3.349256 10.466425-0.209329 14.862324l48.982868 69.078403c4.395898 6.279855 2.302613 15.071652-4.395898 18.630236l-74.730273 39.981743c-4.814555 2.511942-7.535826 7.954483-6.489184 13.397023l14.02501 83.52207c1.255971 7.535826-4.395898 14.652995-12.141053 14.862323l-84.568712 3.558585c-5.442541 0.209328-10.257096 3.977241-11.722396 9.210454l-23.444791 81.638113c-2.093285 7.326497-10.257096 11.303739-17.374266 8.163811l-77.8702-33.492559c-5.023884-2.093285-10.885082-0.837314-14.652995 3.139927l-56.518693 63.007877c-5.233212 5.651869-14.025009 5.651869-19.258222-0.209328l-55.68138-63.845191c-3.558584-4.18657-9.419782-5.442541-14.443666-3.349256l-78.288857 32.236588c-7.117169 2.930599-15.071652-1.046642-17.164937-8.37314l-22.398149-81.638113c-1.465299-5.233212-6.070526-9.001125-11.513067-9.419782l-84.568712-4.814556c-7.745154-0.418657-13.187695-7.535826-11.931724-15.071651l15.28098-83.312741c1.046642-5.442541-1.674628-10.885082-6.279855-13.397024l-74.102288-41.028385c-6.698512-3.767913-8.582468-12.55971-4.186569-18.630236l50.02951-68.450418c3.139927-4.395898 3.349256-10.466425 0.209328-14.862324l-48.982867-69.078403c-4.395898-6.279855-2.302613-15.071652 4.395898-18.630236l74.730273-39.981743c4.814555-2.511942 7.535826-7.954483 6.489183-13.397023l-14.025009-83.52207c-1.255971-7.535826 4.395898-14.652995 12.141053-14.862323l84.568712-3.558585c5.442541-0.209328 10.257096-3.977241 11.722396-9.210454l23.65412-81.428784c2.093285-7.326497 10.257096-11.303739 17.374265-8.163812l77.8702 33.49256c5.023884 2.093285 10.885082 0.837314 14.652995-3.139928l56.518693-63.007877c5.233212-5.651869 14.025009-5.651869 19.258222 0.209329l55.68138 63.845191c3.558584 4.18657 9.419782 5.442541 14.443666 3.349256l78.288857-32.236589c7.117169-2.930599 15.071652 1.046642 17.164937 8.37314l22.398149 81.638113c1.465299 5.233212 6.070526 9.001125 11.513067 9.419783l84.568712 4.814555c7.745154 0.418657 13.187695 7.535826 11.931725 15.071652l-15.280981 83.312741c-1.046642 5.442541 1.674628 10.885082 6.279855 13.397024l74.102288 41.028385c6.698512 3.349256 8.582468 12.141053 3.977241 18.420907z m-377.628606-156.368386c-126.64374 0-229.842688 103.198948-229.842688 229.842688s103.198948 229.842688 229.842688 229.842688 229.842688-103.198948 229.842688-229.842688c0-126.853068-103.198948-229.842688-229.842688-229.842688zM719.156712 128.783851c-12.141053-12.350381-29.096661-19.676879-47.30824-19.676878-6.489183 0-12.978367 1.046642-19.048893 2.72127l-54.006752 16.327623-41.65637-38.097786c-1.465299-1.255971-2.72127-2.511942-4.18657-3.558585l66.985118-207.653867c2.302613-7.326497 11.722396-9.001125 16.536952-2.930599l48.773539 62.58922c2.302613 3.139927 6.489183 4.395898 10.047768 3.349256l75.986244-22.18882c7.326497-2.093285 14.025009 4.814555 11.722395 11.931724l-63.845191 197.187442zM425.678162 128.155866l-54.006752-16.327623c-6.279855-1.883956-12.55971-2.72127-19.048893-2.72127-18.211579 0-34.957859 7.326497-47.30824 19.676878l-63.845191-197.396771c-2.302613-7.326497 4.395898-14.025009 11.722395-11.931724l75.986244 22.188821c3.767913 1.046642 7.745154-0.209328 10.047768-3.349256l48.77354-62.589221c4.605227-6.070526 14.234338-4.395898 16.536951 2.930599l66.985118 207.653868c-1.465299 1.046642-2.930599 2.302613-4.18657 3.558584l-41.65637 38.307115zM648.403681 564.396451l-86.661997 6.279854-32.655246 80.382143c-6.070526 15.071652-27.631361 15.071652-33.701887 0l-32.655246-80.382143-86.661997-6.279854c-16.327623-1.255971-22.816806-21.560835-10.466425-32.02726l66.357134-56.100037-20.723521-84.359384c-3.977241-15.908966 13.397024-28.468675 27.212704-19.886207l73.68363 45.842941 73.683631-45.842941c13.815681-8.582468 31.189946 3.977241 27.212704 19.886207l-20.723521 84.359384 66.357133 56.100037c12.55971 10.466425 6.070526 30.771289-10.257096 32.02726z"  horiz-adv-x="1024" />

    
    <glyph glyph-name="newspaper" unicode="&#58970;" d="M812.138 754.758V896H0v-865.104C0-56.718 71.282-128 158.896-128h706.206C952.718-128 1024-56.718 1024 30.896V754.758H812.138z m-141.242-635.586H141.242v105.932h529.656v-105.932z m0 211.862H141.242v105.932h529.656v-105.932z m0 317.794v-105.932H141.242V754.758h529.656v-105.93z m247.172-617.932c0-29.206-23.76-52.966-52.966-52.966s-52.966 23.76-52.966 52.966V648.828h105.932v-617.932z"  horiz-adv-x="1024" />

    
    <glyph glyph-name="next" unicode="&#58971;" d="M778.935301 420.548801L318.447192 880.883836c-20.205911 20.154886-52.942717 20.154886-73.199653 0-20.205911-20.154886-20.205911-52.891692 0-73.046578l423.962694-423.809619-423.911669-423.80962c-20.205911-20.154886-20.205911-52.891692 0-73.097603 20.205911-20.154886 52.993742-20.154886 73.199653 0l460.488109 460.335035c19.89976 19.946533 19.89976 53.197842-0.051025 73.09335z"  horiz-adv-x="1024" />

    
    <glyph glyph-name="list" unicode="&#58972;" d="M1006.933333 896H17.066667a17.066667 17.066667 0 0 1-17.066667-17.066667v-989.866666a17.066667 17.066667 0 0 1 17.066667-17.066667h989.866666a17.066667 17.066667 0 0 1 17.066667 17.066667V878.933333a17.066667 17.066667 0 0 1-17.066667 17.066667zM318.907733 28.535467l-64.1024 33.706666-64.1024-33.706666 12.2368 71.389866-51.8656 50.568534 71.68 10.410666 32.0512 64.955734 32.0512-64.955734 71.68-10.410666-51.8656-50.568534 12.2368-71.389866z m-12.253866 334.9504l12.2368-71.389867-64.1024 33.706667-64.1024-33.706667 12.2368 71.389867-51.8656 50.568533 71.68 10.410667 32.0512 64.955733 32.0512-64.955733 71.68-10.410667-51.8656-50.568533z m0 257.416533l12.2368-71.389867-64.1024 33.706667-64.1024-33.706667 12.2368 71.389867-51.8656 50.568533 71.68 10.410667 32.0512 64.955733 32.0512-64.955733 71.68-10.410667-51.8656-50.568533zM802.133333 76.8H392.533333v68.266667h409.6v-68.266667z m0 256H392.533333v68.266667h409.6v-68.266667z m0 256H392.533333v68.266667h409.6v-68.266667z"  horiz-adv-x="1024" />

    
    <glyph glyph-name="envelope" unicode="&#58973;" d="M508.099401 805.755539c-124.586976-3.761291-431.188619-182.615014-479.26615-211.116582L2.361587 486.297841l133.456194-95.554714-25.649089 89.587727 628.938354 180.064368 89.206291-311.613382 192.701511 137.08813-33.181623 108.453888c-46.356093 27.519784-354.72561 207.670389-479.733824 211.431681zM1024-37.755539V444.064575l-6.365007-4.530798-178.86699-127.257029-102.095515-72.638698 14.77982-14.534373 17.861159-17.615713 17.857842-17.595813 21.582649-21.234381 209.580887-206.413309zM0 440.217045V-37.755539h4.9056l196.864139 198.19419 19.353735 19.483092 18.109922 18.245913 18.113239 18.242595 25.108445 25.274287-130.772874 93.63095-124.659947 89.246094L0 443.918634zM769.190744 157.32414300000005l-32.14677 31.659195-17.877744 17.615714-17.877743 17.612396-4.583867 4.530798-18.20611 17.910911-3.164261 3.111192a241.432458 241.432458 0 0 1-16.547693 14.796404c-42.379208 34.684149-95.043922 53.593429-150.581016 53.593428-55.613381 0-108.181908-18.872794-150.564432-53.523775a243.017906 243.017906 0 0 1-18.567645-16.776554l-1.107823-1.12109-17.788189-17.907596-11.449717-11.542587-18.103288-18.226011-18.109922-18.226012-59.441009-59.855614-156.806717-157.858153H966.3932l-197.202456 194.207354z"  horiz-adv-x="1024" />

    
    <glyph glyph-name="loudspeaker" unicode="&#58974;" d="M771.721247 840.733518c-8.643996 0-17.117473-5.464474-25.181704-16.225527-0.878828-1.162152-90.312048-117.059902-313.807214-185.967895-16.348826-5.039489-35.606966-11.503466-57.359929-14.155691-12.030763-1.466462-14.87187 1.057217-15.826775 2.79651-6.694834 12.164555-19.607048 20.436032-34.447438 20.436032H104.354933c-21.697872 0-39.350512-17.65264-39.350511-39.350511v-14.641014c0-8.853865-6.240991-9.242123-8.418386-9.412642-3.176898-0.246597-4.971281-0.380388-5.175904-0.396129C23.062023 581.752061 0 556.948122 0 528.526559v-147.538185c0-28.424186 23.062023-53.225502 51.412755-55.284845 0.24922-0.018364 2.825367-0.207246 7.358546-0.564024 1.78389-0.139038 6.235744-1.720929 6.235744-9.591032v-14.302599c0-21.697872 17.65264-39.350512 39.350512-39.350512h17.091239c7.542181 0 9.013891-7.633999 9.01389-7.633999l61.079864-278.252714c5.997018-27.330242 32.616327-48.742167 60.599788-48.742167h70.497753c14.307846 0 27.262034 5.899953 35.533512 16.186177 8.274101 10.286224 11.259493 24.203188 8.192777 38.18049l-59.676363 271.859568s-2.261343 8.405269 6.264602 8.405269h12.146191c14.756442 0 26.514375 8.859112 34.334633 20.23141 3.363157 4.89258 10.322951 4.163284 14.1006 3.39726 22.188442-4.501699 42.377878-9.357552 59.19104-14.551819 223.503036-69.047031 312.925762-184.821483 313.788849-185.965271 8.077348-10.768923 16.556072-16.233398 25.194821-16.233398h0.002624c7.833375 0 14.491482 4.420374 18.266507 12.127828 2.492199 5.091956 3.756662 11.768426 3.756662 19.843151V808.765163c-0.002623 30.425816-18.339962 31.968356-22.015299 31.968355zM961.414323 652.341632c-8.22688 11.928452-24.565213 14.929584-36.488418 6.707951-11.928452-8.224257-14.932207-24.559966-6.710574-36.488418 34.880293-50.589018 53.314696-111.605921 53.314697-176.458188 0-64.610917-19.281751-127.786851-54.287966-177.893169-8.297711-11.875984-5.39889-28.23268 6.479718-36.530392a26.102506 26.102506 0 0 1 15.003038-4.732555 26.204817 26.204817 0 0 1 21.527353 11.20965c41.703672 59.686856 63.747829 131.593358 63.747829 207.943843 0 75.537242-21.642781 146.853486-62.585677 206.241278zM875.197352 578.218385c-8.22688 11.931075-24.562589 14.932207-36.488418 6.707951-11.928452-8.224257-14.932207-24.559966-6.710574-36.488418 20.25502-29.379092 30.960983-64.87063 30.960983-102.636628 0-37.629583-11.196532-74.377714-31.525007-103.470858-8.297711-11.875984-5.39889-28.230057 6.479718-36.530392a26.102506 26.102506 0 0 1 15.003038-4.732555 26.202194 26.202194 0 0 1 21.527354 11.209649c26.810815 38.369372 40.982246 84.543263 40.982246 133.521533 0 48.45622-13.911718 94.244475-40.22934 132.419718z"  horiz-adv-x="1024" />

    
    <glyph glyph-name="file" unicode="&#58975;" d="M874.613734 780.083542h-29.94152v-735.600067c0-48.867769-39.779449-88.646149-88.647218-88.646148H211.409056v-27.268171c0-31.225798 25.343358-56.568087 56.568087-56.568087h606.529657c31.224728 0 56.567018 25.342289 56.567018 56.568087V723.515455c0.001069 31.224728-25.235355 56.568087-56.460084 56.568087zM452.652164-12.082473h303.264828c31.224728 0 56.568087 25.342289 56.568087 56.565948V839.431913c0 31.224728-25.343358 56.568087-56.568087 56.568087H351.8134v-18.71345c0.212799-1.924812 0.320802-3.956558 0.320802-5.988304V716.350877c0-43.949875-35.715957-79.665831-79.665831-79.665831H117.521003c-1.60401 0-3.314954 0.106934-4.918965 0.213868H92.926182v-592.415439c0-31.223659 25.343358-56.565948 56.568087-56.565948h303.157895zM464.094102 180.183793H266.373133c-14.756892 0-26.7335 11.977678-26.733501 26.7335 0 14.757962 11.976608 26.7335 26.733501 26.733501h197.827903c14.756892 0 26.7335-11.975539 26.7335-26.733501 0-14.755823-12.083542-26.7335-26.840434-26.7335z m197.827903 136.446717H266.373133c-14.756892 0-26.7335 11.977678-26.733501 26.7335 0 14.757962 11.976608 26.7335 26.733501 26.7335H661.922005c14.756892 0 26.7335-11.975539 26.7335-26.7335 0-14.755823-11.976608-26.7335-26.7335-26.7335zM266.373133 514.994152H661.922005c14.756892 0 26.7335-11.976608 26.7335-26.7335s-11.976608-26.7335-26.7335-26.733501H266.373133c-14.756892 0-26.7335 11.976608-26.733501 26.733501s11.976608 26.7335 26.733501 26.7335zM117.521003 668.765246h155.375104c25.878028 0.213868 46.837093 21.172932 47.050961 47.050961V871.298246c0 14.329156-11.76274 23.846282-23.952147 23.846282-5.88137 0-11.76274-2.13868-16.681705-7.057644L100.62543 709.400167c-14.97076-14.97076-4.384294-40.634921 16.895573-40.634921z"  horiz-adv-x="1024" />

    
    <glyph glyph-name="right" unicode="&#58976;" d="M995.21 412.138L436.908 896l-48.758-56.276L913.996 384 388.15-71.724 436.908-128l558.302 483.862c8.152 7.072 12.84 17.344 12.84 28.138s-4.688 21.066-12.84 28.138zM623.01 412.138L64.708 896 15.948 839.724 541.794 384 15.948-71.724 64.708-128l558.302 483.862c8.152 7.11 12.84 17.344 12.84 28.138s-4.69 21.03-12.84 28.138z"  horiz-adv-x="1024" />

    
    <glyph glyph-name="entry" unicode="&#58977;" d="M1010.054993 417.668373l-304.725627 304.725628c-18.592072 18.592072-48.744673 18.592072-67.336746 0-18.595881-18.595881-18.595881-48.740864 0-67.336746l223.443876-223.443876H47.613379c-26.294013 0-47.613379-21.319367-47.613379-47.613379 0-26.290204 21.319367-47.613379 47.613379-47.613379h813.823117l-223.436258-223.443876c-18.595881-18.595881-18.595881-48.740864 0-67.336746 9.294132-9.290323 21.483157-13.945007 33.668373-13.945006s24.370432 4.654684 33.668373 13.945006l304.718009 304.725628c18.595881 18.595881 18.595881 48.740864 0 67.336746z"  horiz-adv-x="1024" />

    
    <glyph glyph-name="exchange" unicode="&#58979;" d="M977.454586 663.271535H158.916797l153.267739 153.270842c18.177523 18.17442 18.177523 47.646957 0 65.82448-18.17442 18.177523-47.646957 18.177523-65.82448 0l-232.726913-232.726913c-18.177523-18.17442-18.177523-47.646957 0-65.82448l232.726913-232.726913A46.402643 46.402643 0 0 1 279.273847 337.453857a46.390231 46.390231 0 0 1 32.910689 13.634694c18.177523 18.17442 18.177523 47.646957 0 65.82448L158.916797 570.18077H977.454586c25.705463 0 46.545383 20.839919 46.545383 46.545383s-20.839919 46.545383-46.545383 46.545382zM777.638362 416.913031c-18.17442 18.17442-47.646957 18.17442-65.82448 0-18.177523-18.17442-18.177523-47.646957 0-65.82448L865.084724 197.817709H46.546934c-25.705463 0-46.545383-20.839919-46.545382-46.545382 0-25.705463 20.839919-46.545383 46.545382-46.545383h818.53779l-153.267739-153.270842c-18.177523-18.17442-18.177523-47.646957 0-65.82448A46.39954 46.39954 0 0 1 744.727673-127.999969a46.390231 46.390231 0 0 1 32.910689 13.634694l232.726913 232.726913c18.177523 18.17442 18.177523 47.646957 0 65.82448l-232.726913 232.726913z"  horiz-adv-x="1024" />

    
    <glyph glyph-name="edit_normal" unicode="&#58978;" d="M946.207752-11.311628H77.792248c-18.257364 0-32.545736-15.082171-32.545736-32.545736s15.082171-32.545736 32.545736-32.545737h869.209302c18.257364 0 32.545736 15.082171 32.545737 32.545737s-15.082171 32.545736-33.339535 32.545736zM45.246512 276.837209l-0.793799-154.790697c0-8.731783 3.175194-17.463566 9.525582-23.813954 6.350388-6.350388 14.288372-9.525581 23.020155-9.525581l153.996899 0.793798c8.731783 0 16.669767 3.175194 23.020155 9.525582l531.844961 531.844961c12.700775 12.700775 12.700775 33.339535 0 46.834108L633.451163 831.702326c-12.700775 12.700775-33.339535 12.700775-46.834109 0L480.248062 724.539535 54.772093 299.857364c-5.556589-6.350388-9.525581-14.288372-9.525581-23.020155z m565.184496 485.010853l107.16279-107.162791-60.328682-60.328682-107.16279 107.162791 60.328682 60.328682zM111.131783 262.548837l392.136434 392.136434 107.162791-107.16279-392.136434-391.342636-107.95659-0.793798 0.793799 107.16279z"  horiz-adv-x="1024" />

    
    <glyph glyph-name="remove" unicode="&#58980;" d="M512-75.609302c253.221705 0 459.609302 206.387597 459.609302 459.609302S765.221705 843.609302 512 843.609302 52.390698 637.221705 52.390698 384s206.387597-459.609302 459.609302-459.609302z m0 854.92093c217.500775 0 395.311628-177.017054 395.311628-395.311628S730.294574-11.311628 512-11.311628 116.688372 166.499225 116.688372 384s177.810853 395.311628 395.311628 395.311628zM300.055814 356.217054h423.094574c18.257364 0 32.545736 14.288372 32.545736 32.545737s-14.288372 32.545736-32.545736 32.545736H300.055814c-18.257364 0-32.545736-14.288372-32.545736-32.545736s15.082171-32.545736 32.545736-32.545737z"  horiz-adv-x="1024" />

    
    <glyph glyph-name="organazation" unicode="&#58981;" d="M512 579.61993l176.053392 81.365035L511.997326 896l-176.053391-235.012361zM863.267224 400.360706l-140.722394 187.847325-210.54483-97.305962-210.547504 97.305962-140.71972-187.847325 351.267224-177.160326zM899.055433 325.848505l-387.055433-195.208172L124.944567 325.848505 3.986569 164.38312 511.997326-128l508.016105 292.38312z"  horiz-adv-x="1024" />

    
    <glyph glyph-name="clock" unicode="&#58982;" d="M511.991467 896C229.229634 896 0 666.763539 0 384.008533s229.229634-512.008533 511.991467-512.008533 512.008533 229.253528 512.008533 512.008533S794.753299 896 511.991467 896z m221.348115-609.372076H516.275271c-0.733879 0-1.416557 0.177496-2.143609 0.204803-0.727052-0.034134-1.406317-0.204803-2.143609-0.204803-19.555313 0-35.41051 15.855198-35.41051 35.41051V683.519872c0 19.555313 15.855198 35.41051 35.41051 35.41051s35.41051-15.855198 35.41051-35.41051v-326.070928h185.927366c19.555313 0 35.41051-15.855198 35.41051-35.41051 0-19.555313-15.841544-35.41051-35.396857-35.41051z"  horiz-adv-x="1024" />

    
    <glyph glyph-name="postcode" unicode="&#58983;" d="M662 354v120H422v-120H182l-120-120 120-120h780V354H662z m150-150H332v60h480v-60zM422 54h240v-182H422zM842 774h-180V896H422v-122H62v-240h780l120 120-120 120z m-120-150H242v60h480v-60z"  horiz-adv-x="1024" />

    
    <glyph glyph-name="contact" unicode="&#58984;" d="M832.003957 191.993405h-64.002902c-70.688733 0-128.003693 57.314961-128.003693 128.005804v41.119548c28.317702 33.65708 48.628445 73.468164 61.253016 115.535294 1.310575 7.091033 8.135694 10.594341 12.687884 15.469425 24.504161 24.49994 29.322265 65.845304 10.942561 95.283643-2.502966 4.467773-7.010837 8.342516-6.755475 13.878164 0 37.531823 0.187828 75.122739-0.04854 112.625016-1.004563 45.279199-13.945698 92.379695-45.690732 125.908039-25.629018 27.089433-60.820379 43.219423-97.126044 50.122628-45.87856 8.751938-93.875988 8.308749-139.315579-3.250057-39.378446-9.937998-76.374221-33.000738-99.249133-67.187535-20.255873-29.721135-29.130216-65.809427-30.628619-101.376443-0.561373-38.186056-0.128736-76.46708-0.244809-114.745995 0.871606-7.662958-5.628507-12.848276-8.564111-19.192218-17.311828-31.405255-9.691078-74.192041 18.126453-97.033185 7.057266-4.870864 8.378393-13.749428 10.934119-21.403945 12.130731-37.81251 32.251536-72.782276 57.688506-103.252612v-42.499767c0-70.690843-57.31285-128.005804-127.999473-128.005804H192.002374S76.004897 160.003561 0-0.002638v-64.002902c0-35.368636 28.625824-63.990239 64.002902-63.990239h896.006859c35.368636 0 63.99235 28.621603 63.992349 63.990239V-0.002638c-76.000676 159.993537-191.998153 191.996043-191.998153 191.996043z"  horiz-adv-x="1024" />

    
    <glyph glyph-name="close-envelope" unicode="&#58986;" d="M512 237.714286L385.316571 348.598857 23.113143 38.107429c13.165714-12.214857 30.939429-19.821714 50.541714-19.821715h876.690286c19.529143 0 37.229714 7.606857 50.322286 19.821715L638.683429 348.598857 512 237.714286zM1000.886857 729.892571A73.654857 73.654857 0 0 1 950.345143 749.714286H73.654857c-19.529143 0-37.229714-7.606857-50.395428-19.968L512 310.857143l488.886857 419.035428zM0 685.494857v-607.670857l353.499429 300.397714zM670.500571 378.221714L1024 77.824V685.714286z"  horiz-adv-x="1024" />

    
    <glyph glyph-name="place" unicode="&#58987;" d="M511.98428 896C304.130505 896 135.009589 726.879085 135.009589 519.004349c0-54.221813 11.097971-105.991383 32.969042-153.883475 94.254152-206.250386 274.965583-424.00745 328.11847-485.827024a20.990779 20.990779 0 0 1 31.795319 0c53.131927 61.809094 233.843358 279.555678 328.128949 485.827024 21.881551 47.892092 32.969042 99.661662 32.969042 153.883475C888.969451 726.879085 719.848536 896 511.98428 896z m0-572.808285c-107.972041 0-195.823115 87.851074-195.823114 195.823114 0 107.98252 87.851074 195.833594 195.823114 195.833594s195.823115-87.851074 195.823115-195.833594c0.01048-107.972041-87.840594-195.823115-195.823115-195.823114z"  horiz-adv-x="1024" />

    
    <glyph glyph-name="phone-receiver" unicode="&#58988;" d="M1023.511121 88.059809c2.169844-16.623664-2.896078-31.077484-15.176511-43.36146l-144.176853-143.087503c-6.504219-7.22691-14.994067-13.375097-25.473087-18.42862-10.479019-5.060608-20.775595-8.312718-30.889726-9.756328-0.722691 0-2.896078-0.185987-6.511304-0.547332-3.608141-0.359574-8.305633-0.54379-14.08716-0.54379-13.734671 0-35.959191 2.348746-66.673559 7.048008s-68.292528 16.26409-112.734481 34.689168c-44.452581 18.42862-94.858507 46.075093-151.226633 82.928792-56.368126 36.851927-116.35325 87.443839-179.950058 151.765109-50.58837 49.865679-92.504447 97.563284-125.748233 143.091045-33.243786 45.531304-59.983353 87.628054-80.2187 126.292023-20.237119 38.663968-35.41363 73.714481-45.531304 105.151539S8.130274 581.838431 4.516819 604.603197-0.542018 645.254566 0.180673 658.263004c0.722691 13.008438 1.084036 20.235348 1.084036 21.68073 1.445382 10.117674 4.697491 20.416021 9.756329 30.89504s11.20171 18.970639 18.42862 25.474857L173.626511 880.490484c10.117674 10.117674 21.68073 15.176511 34.689168 15.176511 9.394983 0 17.705929-2.710091 24.932839-8.130273s13.369783-12.105074 18.428621-20.054675l115.991904-220.059408c6.504219-11.563056 8.310946-24.210148 5.420183-37.941277-2.890764-13.731129-9.033637-25.294185-18.428621-34.689168l-53.117788-53.117788c-1.445382-1.445382-2.710091-3.794128-3.794127-7.046237s-1.626055-5.962201-1.626055-8.130274c2.890764-15.176511 9.394983-32.521095 19.512657-52.033752 8.672292-17.344584 22.042075-38.483295 40.10935-63.416135s43.722805-53.658035 76.966591-86.179129c32.521095-33.247328 61.428735-59.079989 86.722919-77.512152 25.288871-18.421535 46.434668-31.977305 63.417906-40.649597 16.983238-8.672292 29.991676-13.911802 39.023543-15.713215l13.546913-2.711863c1.445382 0 3.799442 0.54379 7.048009 1.626055 3.252109 1.085808 5.600855 2.348746 7.048008 3.795899l61.788309 62.874116c13.015523 11.561285 28.184949 17.342813 45.531304 17.342813 12.28929 0 22.040304-2.166302 29.267214-6.504219h1.082265l209.217272-123.58016c15.181825-9.402068 24.213691-21.322927 27.106226-35.776747z"  horiz-adv-x="1024" />

    
    <glyph glyph-name="group" unicode="&#58989;" d="M760.90786 210.846706c-68.504822 56.316848-142.263082 93.511184-157.392982 100.865997-1.6811 0.84055-2.731787 2.52165-2.731788 4.412887v106.539709c13.4488 9.035912 22.274574 24.165812 22.274575 41.397086v110.532321c0 55.056023-44.549148 99.605171-99.605172 99.605171h-23.745536c-55.056023 0-99.605171-44.549148-99.605172-99.605171v-110.532321c0-17.231274 8.825775-32.571311 22.274575-41.397086v-106.539709c0-1.891237-1.050687-3.572337-2.731788-4.412887-15.129899-7.354812-88.888159-44.759286-157.392982-100.865997-12.398112-10.0866-19.542787-25.426637-19.542786-41.397086v-75.649497h537.741842v75.649497c0 15.970449-7.144675 31.310486-19.542786 41.397086zM1006.978863 285.445516c-57.367535 47.280936-119.358096 78.591422-131.966345 84.68541-1.470962 0.630412-2.311512 2.101375-2.311512 3.782474v89.308435c11.137287 7.56495 18.702237 20.173199 18.702236 34.882823v92.670634c0 46.020111-37.404474 83.424584-83.424584 83.424585h-19.752924c-46.020111 0-83.424584-37.404474-83.424585-83.424585v-92.670634c0-14.499487 7.354812-27.317874 18.702237-34.882823v-89.308435c0-1.6811-0.84055-2.941925-2.311512-3.782474-7.775087-3.782475-34.672686-17.231274-67.454135-38.245024 32.781449-18.071824 84.685409-49.172173 133.647445-89.518572 17.231274-14.079212 28.578699-33.621999 32.781448-55.056023h203.833368v63.461523c-0.630412 13.4488-6.514262 26.267187-17.021137 34.672686zM302.597989 370.130926c-1.470962 0.630412-2.311512 2.101375-2.311512 3.782474v89.308435c11.137287 7.56495 18.702237 20.173199 18.702236 34.882823v92.670634c0 46.020111-37.404474 83.424584-83.424584 83.424585H215.39093c-46.020111 0-83.424584-37.404474-83.424585-83.424585v-92.670634c0-14.499487 7.354812-27.317874 18.702237-34.882823v-89.308435c0-1.6811-0.84055-2.941925-2.311512-3.782474-12.60825-6.093987-74.59881-37.404474-131.966346-84.68541-10.296737-8.615637-16.390724-21.223887-16.390724-34.672686v-63.461523h203.833368c3.992612 21.434024 15.550174 40.976811 32.781448 55.056023 48.962036 40.346399 100.865996 71.446747 133.647445 89.518572-32.991586 21.013749-59.889185 34.462549-67.664272 38.245024z"  horiz-adv-x="1024" />

    
    <glyph glyph-name="trophy1" unicode="&#58991;" d="M972.8 844.8h-153.6V896H204.8v-51.2H51.2C20.48 844.8 0 824.32 0 793.6v-122.88c0-117.76 87.04-215.04 204.8-230.4v-5.12c0-148.48 102.4-271.36 240.64-302.08L409.6 25.6h-117.76c-20.48 0-40.96-15.36-46.08-35.84L204.8-128h614.4l-40.96 117.76c-5.12 20.48-25.6 35.84-46.08 35.84H614.4l-35.84 107.52c138.24 30.72 240.64 153.6 240.64 302.08v5.12c117.76 15.36 204.8 112.64 204.8 230.4V793.6c0 30.72-20.48 51.2-51.2 51.2z m-768-302.08c-56.32 15.36-102.4 66.56-102.4 128V742.4h102.4v-199.68zM614.4 384L512 440.32 409.6 384l25.6 102.4-76.8 102.4h107.52L512 691.2l46.08-102.4h107.52l-76.8-102.4 25.6-102.4z m307.2 286.72c0-61.44-46.08-117.76-102.4-128V742.4h102.4v-71.68z"  horiz-adv-x="1024" />

    
    <glyph glyph-name="info" unicode="&#58992;" d="M511.978328 896C229.245968 896 0 666.754032 0 384.021672s229.245968-512.021672 511.978328-512.021672 512.021672 229.289312 512.021672 512.021672S794.710688 896 511.978328 896z m106.582688-793.497058c-26.353101-10.40254-47.331556-18.291132-63.065397-23.752466a166.353947 166.353947 0 0 0-54.700021-8.192c-31.901122 0-56.737185 7.801905-74.421503 23.362371s-26.483132 35.281947-26.483132 59.251132c0 9.318942 0.650159 18.854603 1.950476 28.56364a356.720423 356.720423 0 0 0 6.371556 32.898032l32.984719 116.508444c2.904042 11.18273 5.417989 21.801989 7.41181 31.684402 1.99382 9.969101 2.947386 19.114667 2.947386 27.436699 0 14.823619-3.077418 25.226159-9.18891 31.077587-6.19818 5.851429-17.857693 8.712127-35.238603 8.712127-8.495407 0-17.250878-1.256974-26.223069-3.900952-8.885503-2.730667-16.60072-5.20127-22.928931-7.628529l8.712127 35.888761c21.58527 8.798815 42.260317 16.340656 61.981799 22.58218a183.128042 183.128042 0 0 0 55.913651 9.448974c31.684402 0 56.13037-7.715217 73.337904-22.972275 17.120847-15.300402 25.746286-35.195259 25.746286-59.641228 0-5.071238-0.606815-14.000085-1.777101-26.743195a178.967026 178.967026 0 0 0-6.588275-35.151916l-32.811344-116.161693a328.633566 328.633566 0 0 1-7.238433-31.901122 168.694519 168.694519 0 0 1-3.164106-27.133291c0-15.430434 3.424169-25.963005 10.359196-31.55437 6.848339-5.591365 18.854603-8.40872 35.845418-8.40872 8.018624 0 16.990815 1.430349 27.133291 4.20436 10.055788 2.774011 17.337566 5.244614 21.932021 7.368466l-8.798815-35.845418z m-5.808085 471.495111a78.322455 78.322455 0 0 0-55.263492-21.325206c-21.498582 0-40.049778 7.108402-55.480211 21.325206a68.049947 68.049947 0 0 0-23.102307 51.709291c0 20.154921 7.801905 37.492487 23.102307 51.839323a78.539175 78.539175 0 0 0 55.480211 21.541926c21.541926 0 40.006434-7.151746 55.263492-21.541926 15.300402-14.346836 22.972275-31.684402 22.972275-51.839323 0-20.241608-7.671873-37.492487-22.972275-51.709291z"  horiz-adv-x="1024" />

    
    <glyph glyph-name="diploma" unicode="&#58993;" d="M604-8H0c0-66.182 53.818-120 120-120h530.816C622.032-96.082 604-54.268 604-8zM874 896H150C100.372 896 60 855.628 60 806v-754h574c16.582 0 30-13.418 30-30v-30c0-66.182 53.818-120 120-120s120 53.818 120 120V892.964A149.978 149.978 0 0 1 874 896zM210 712h120c16.582 0 30-13.418 30-30s-13.418-30-30-30h-120c-16.582 0-30 13.418-30 30s13.418 30 30 30z m0-180h120c16.582 0 30-13.418 30-30s-13.418-30-30-30h-120c-16.582 0-30 13.418-30 30s13.418 30 30 30z m0-180h180c16.582 0 34-13.418 34-30s-17.418-30-34-30h-180c-16.582 0-30 13.418-30 30s13.418 30 30 30z m544-240H210c-16.582 0-30 13.418-30 30s13.418 30 30 30h544c16.582 0 30-13.418 30-30s-13.418-30-30-30z m-30 346.816V262a29.994 29.994 0 0 0-46.64-24.96L604 285.936l-73.36-48.896c-9.17-6.124-21.036-6.708-30.792-1.494S484 250.926 484 262v196.816c-36.558 32.97-60 80.192-60 133.184 0 99.258 80.742 180 180 180s180-80.742 180-180c0-52.99-23.442-100.214-60-133.184zM604 411.998c-21.142 0-41.14 4.338-60 11.062v-105.014l43.36 28.916a29.926 29.926 0 0 0 33.282 0L664 318.044v105.01c-18.86-6.724-38.858-11.056-60-11.056zM604 712c-66.182 0-120-53.818-120-120s53.818-120 120-120 120 53.818 120 120-53.818 120-120 120zM964 861.234V652h30c16.582 0 30 13.418 30 30V742c0 48.808-23.792 91.824-60 119.234z"  horiz-adv-x="1024" />

    
    <glyph glyph-name="rongzi" unicode="&#58994;" d="M160.593702 477.096851H46.559319c-25.708936 0-46.559319-20.850383-46.559319-46.559319v-512C0-107.149617 20.850383-128 46.559319-128h114.034383c25.708936 0 46.537532 20.850383 46.537532 46.537532v512c0 25.708936-20.828596 46.559319-46.537532 46.559319zM432.890553 337.484255h-114.034383a46.559319 46.559319 0 0 1-46.559319-46.559319v-372.34383c0-25.730723 20.828596-46.559319 46.559319-46.559319h114.034383c25.708936 0 46.537532 20.850383 46.537532 46.559319v372.34383c0 25.708936-20.828596 46.559319-46.537532 46.559319zM705.14383 337.484255h-114.034383c-25.708936 0-46.537532-20.850383-46.537532-46.559319v-372.34383c0-25.730723 20.828596-46.559319 46.537532-46.559319h114.034383a46.559319 46.559319 0 0 1 46.559319 46.559319v372.34383c0 25.708936-20.828596 46.559319-46.559319 46.559319zM977.440681 477.096851h-114.034383c-25.708936 0-46.537532-20.850383-46.537532-46.559319v-512c0-25.708936 20.828596-46.537532 46.537532-46.537532h114.034383c25.708936 0 46.559319 20.87217 46.559319 46.537532v512c0 25.708936-20.850383 46.559319-46.559319 46.559319zM525.573447 615.598298v-83.793702c25.36034 1.677617 52.093277 13.573447 52.093276 41.482893 0 28.802723-29.30383 37.234383-52.093276 42.310809zM452.695149 715.884936c0-21.177191 15.75217-33.421617 47.49617-39.783489V751.899234c-28.846298-0.849702-47.49617-17.80017-47.49617-36.014298zM512 896c-141.159489 0-256-114.862298-256-256 0-141.094128 114.840511-255.956426 256-255.956426s256 114.862298 256 255.956426C768 781.137702 653.159489 896 512 896z m13.573447-407.399489v-26.210043c0-7.211574-5.533957-14.401362-12.767319-14.401362-7.146213 0-12.614809 7.189787-12.614809 14.401362v26.210043c-71.527489 1.742979-107.106043 44.489532-107.106042 77.932936 0 16.885106 10.218213 26.645787 26.210042 26.645787 47.409021 0 10.545021-58.411574 80.896-61.352851v88.45617c-62.747234 11.394723-100.74417 38.912-100.74417 85.885277 0 57.540085 47.844766 87.214298 100.74417 88.870127V817.609532c0 7.211574 5.468596 14.401362 12.614809 14.401362 7.233362 0 12.767319-7.189787 12.767319-14.401362v-22.571575c32.985872-0.871489 100.722383-21.569362 100.722383-63.074042 0-16.492936-12.331574-26.210043-26.732936-26.210043-27.539064 0-27.146894 45.252085-73.989447 46.123575v-80.416681c55.862468-11.874043 105.341277-28.366979 105.341276-93.554383 0-56.690383-42.310809-85.449532-105.341276-89.305872z"  horiz-adv-x="1024" />

    
    <glyph glyph-name="list1" unicode="&#58995;" d="M1006.933333 896H17.066667a17.066667 17.066667 0 0 1-17.066667-17.066667v-989.866666a17.066667 17.066667 0 0 1 17.066667-17.066667h989.866666a17.066667 17.066667 0 0 1 17.066667 17.066667V878.933333a17.066667 17.066667 0 0 1-17.066667 17.066667zM318.907733 28.535467l-64.1024 33.706666-64.1024-33.706666 12.2368 71.389866-51.8656 50.568534 71.68 10.410666 32.0512 64.955734 32.0512-64.955734 71.68-10.410666-51.8656-50.568534 12.2368-71.389866z m-12.253866 334.9504l12.2368-71.389867-64.1024 33.706667-64.1024-33.706667 12.2368 71.389867-51.8656 50.568533 71.68 10.410667 32.0512 64.955733 32.0512-64.955733 71.68-10.410667-51.8656-50.568533z m0 257.416533l12.2368-71.389867-64.1024 33.706667-64.1024-33.706667 12.2368 71.389867-51.8656 50.568533 71.68 10.410667 32.0512 64.955733 32.0512-64.955733 71.68-10.410667-51.8656-50.568533zM802.133333 76.8H392.533333v68.266667h409.6v-68.266667z m0 256H392.533333v68.266667h409.6v-68.266667z m0 256H392.533333v68.266667h409.6v-68.266667z"  horiz-adv-x="1024" />

    


  </font>
</defs>
</svg>
