<?xml version="1.0" encoding="utf-8"?>
<!-- Generator: Adobe Illustrator 15.0.0, SVG Export Plug-In . SVG Version: 6.00 Build 0)  -->
<!DOCTYPE svg PUBLIC "-//W3C//DTD SVG 1.1//EN" "http://www.w3.org/Graphics/SVG/1.1/DTD/svg11.dtd">
<svg version="1.1" id="Capa_1" xmlns="http://www.w3.org/2000/svg" xmlns:xlink="http://www.w3.org/1999/xlink" x="0px" y="0px"
	 width="16px" height="17px" viewBox="0 0 16 17" enable-background="new 0 0 16 17" xml:space="preserve">
<path fill="#E1BC29" d="M5.119,4.547l2.879-2.013l2.83,2.013H5.119z M15.721,5.965l-6.281,9.557C9.119,16.006,8.582,16.295,8,16.295
	s-1.12-0.289-1.438-0.773L0.279,5.965C-0.16,5.296-0.073,4.396,0.488,3.824l2.553-2.603c0.322-0.328,0.77-0.516,1.229-0.516h7.46
	c0.459,0,0.908,0.188,1.229,0.516l2.553,2.604C16.072,4.396,16.16,5.296,15.721,5.965z M15.234,4.952
	c0-0.109-0.043-0.208-0.114-0.281c-0.007-0.016-0.013-0.032-0.021-0.048c0.006,0.015,0.012,0.03,0.018,0.044
	c-0.072-0.074-0.174-0.12-0.287-0.12h-2.1l0.685-1.656c0.085-0.207-0.013-0.443-0.22-0.528c-0.205-0.086-0.442,0.012-0.527,0.219
	l-0.729,1.762L8.234,1.71c-0.139-0.099-0.326-0.1-0.466-0.002l-3.71,2.594L3.389,2.546C3.31,2.337,3.076,2.232,2.867,2.312
	S2.553,2.625,2.633,2.834l0.652,1.713H1.17c-0.112,0-0.214,0.046-0.288,0.12C0.888,4.653,0.894,4.638,0.9,4.624
	C0.892,4.639,0.886,4.655,0.88,4.671C0.809,4.744,0.765,4.843,0.765,4.952c0,0.223,0.181,0.404,0.405,0.404H3.6l3.956,9.917
	l0.001,0.002c0.001,0.006,0.004,0.01,0.006,0.014c0.008,0.018,0.017,0.035,0.027,0.051c0.004,0.006,0.008,0.012,0.013,0.018
	c0.01,0.016,0.021,0.027,0.032,0.041c0.005,0.006,0.01,0.011,0.015,0.017c0.016,0.015,0.032,0.028,0.05,0.041
	c0.002,0.002,0.003,0.003,0.005,0.004c0.021,0.015,0.042,0.024,0.065,0.035c0.002,0.001,0.004,0.002,0.006,0.004
	c0.004,0.001,0.008,0.002,0.012,0.003c0.017,0.007,0.034,0.012,0.052,0.016c0.007,0.002,0.014,0.004,0.021,0.006
	c0.022,0.004,0.045,0.006,0.069,0.006c0,0,0,0,0.001,0l0,0l0,0h0.001C7.956,15.527,7.978,15.525,8,15.521
	c0.007-0.002,0.013-0.004,0.02-0.004c0.017-0.004,0.033-0.01,0.05-0.016c0.004-0.001,0.008-0.002,0.012-0.004
	c0.003-0.001,0.005-0.003,0.008-0.004c0.013-0.005,0.025-0.012,0.037-0.02c0.05-0.007,0.099-0.018,0.146-0.031
	c-0.039,0.007-0.077,0.012-0.116,0.016c0.019-0.014,0.037-0.027,0.053-0.043c0.005-0.005,0.01-0.012,0.016-0.018
	c0.011-0.012,0.022-0.024,0.032-0.039c0.004-0.006,0.009-0.012,0.013-0.018c0.01-0.016,0.019-0.031,0.027-0.049
	c0.002-0.006,0.005-0.01,0.007-0.014c0-0.002,0.001-0.002,0.001-0.004l4.09-9.92h2.435C15.055,5.356,15.234,5.175,15.234,4.952z
	 M7.938,14.047l3.582-8.69H4.471L7.938,14.047z"/>
</svg>
