<?xml version="1.0" encoding="utf-8"?>
<!-- Generator: Adobe Illustrator 15.0.0, SVG Export Plug-In . SVG Version: 6.00 Build 0)  -->
<!DOCTYPE svg PUBLIC "-//W3C//DTD SVG 1.1//EN" "http://www.w3.org/Graphics/SVG/1.1/DTD/svg11.dtd">
<svg version="1.1" id="Layer_1" xmlns="http://www.w3.org/2000/svg" xmlns:xlink="http://www.w3.org/1999/xlink" x="0px" y="0px"
	 width="612px" height="792px" viewBox="0 0 612 792" enable-background="new 0 0 612 792" xml:space="preserve">
<polygon fill="#F7F7F7" points="158.441,206.618 392.011,206.618 453.559,268.166 453.559,585.382 158.441,585.382 "/>
<polygon fill="#EBECEC" points="422.784,237.393 453.559,268.166 453.559,585.382 158.441,585.382 "/>
<polygon fill="#FF8C8A" points="158.441,206.618 392.011,206.618 453.559,268.166 453.559,297.785 158.441,297.785 "/>
<polygon fill="#EBECEC" points="392.011,206.618 392.011,268.166 453.559,268.166 "/>
<path fill="#FFFFFF" d="M179.588,279.527v-53.469h17.314c6.557,0,10.829,0.266,12.822,0.797c3.063,0.811,5.621,2.551,7.687,5.242
	c2.067,2.685,3.103,6.158,3.103,10.411c0,3.288-0.598,6.039-1.781,8.279c-1.195,2.239-2.704,4-4.532,5.282
	c-1.828,1.27-3.693,2.113-5.586,2.525c-2.579,0.504-6.298,0.771-11.181,0.771h-7.015v20.164h-10.831V279.527z M190.418,235.094
	v15.234h5.887c4.246,0,7.069-0.286,8.504-0.844c1.429-0.564,2.551-1.436,3.355-2.644c0.81-1.189,1.223-2.571,1.223-4.166
	c0-1.953-0.571-3.561-1.707-4.83c-1.143-1.27-2.578-2.067-4.332-2.385c-1.275-0.239-3.854-0.366-7.74-0.366H190.418z
	 M229.397,279.527v-53.469h17.314c6.557,0,10.83,0.266,12.816,0.797c3.063,0.811,5.627,2.551,7.693,5.242
	c2.066,2.685,3.103,6.158,3.103,10.411c0,3.288-0.598,6.039-1.781,8.279c-1.195,2.239-2.704,4-4.531,5.282
	c-1.828,1.27-3.694,2.113-5.587,2.525c-2.579,0.504-6.298,0.771-11.181,0.771h-7.015v20.164h-10.831V279.527z M240.227,235.094
	v15.234h5.887c4.246,0,7.069-0.286,8.504-0.844c1.429-0.564,2.551-1.436,3.361-2.644c0.805-1.189,1.216-2.571,1.216-4.166
	c0-1.953-0.571-3.561-1.707-4.83c-1.143-1.27-2.578-2.067-4.332-2.385c-1.275-0.239-3.854-0.366-7.739-0.366H240.227z
	 M291.23,279.527v-44.433h-15.832v-9.036h42.415v9.036h-15.752v44.433H291.23z"/>
<path fill="#FF8C8A" d="M315.095,432.255l52.32,58.299c32.196-28.9,34.873-78.417,5.993-110.605L315.095,432.255z"/>
<path fill="#FAD55C" d="M240.26,491.047c31.292,34.859,84.914,37.769,119.781,6.477l-113.31-126.271
	C211.877,402.551,208.967,456.173,240.26,491.047z"/>
<path fill="#5ED1B3" d="M254.391,366.003l52.307,58.286l58.306-52.299C336.11,339.787,286.58,337.117,254.391,366.003z"/>
</svg>
